<svg id="svg" version="1.1" width="400" height="400" viewBox="0 0 400 400" xmlns="http://www.w3.org/2000/svg">
  <g id="svgg">
    <path id="path0"
          d="M182.000 13.998 C 136.928 18.410,106.388 43.641,97.549 83.768 C 97.117 85.730,96.684 87.463,96.588 87.620 C 94.563 90.895,93.214 110.837,92.774 144.000 C 92.562 159.950,92.306 173.990,92.206 175.200 C 92.106 176.410,91.822 180.820,91.575 185.000 C 89.994 211.796,82.223 235.443,66.435 261.509 C 64.964 263.937,57.566 275.165,56.348 276.816 C 53.450 280.747,46.949 289.477,46.531 290.000 C 43.481 293.808,31.495 308.162,29.893 309.925 C 17.521 323.537,9.078 334.015,2.060 344.469 L 0.000 347.539 0.000 373.769 L 0.000 400.000 200.000 400.000 L 400.000 400.000 400.000 370.170 L 400.000 340.340 397.714 337.270 C 394.450 332.888,387.866 324.673,385.025 321.441 C 383.691 319.923,380.339 316.143,377.575 313.041 C 358.129 291.212,340.051 268.346,331.000 254.128 C 315.857 230.341,308.367 213.610,304.173 194.200 C 300.751 178.364,299.684 165.061,299.185 132.000 C 298.942 115.964,298.595 104.777,298.217 100.800 C 293.934 55.755,270.006 26.882,228.800 17.036 C 216.795 14.168,194.833 12.742,182.000 13.998 M170.853 75.796 C 196.074 83.319,205.460 128.455,186.279 149.983 L 185.300 151.081 176.750 151.373 C 166.586 151.719,160.245 152.118,150.807 153.003 L 143.815 153.659 142.303 151.930 C 116.182 122.051,137.282 65.782,170.853 75.796 M241.661 77.743 C 267.781 86.033,275.149 129.201,254.179 151.087 L 252.422 152.920 248.911 152.636 C 238.883 151.824,234.892 151.611,225.000 151.359 L 214.200 151.085 212.712 149.538 C 208.471 145.130,204.509 136.947,202.650 128.757 C 196.027 99.578,218.376 70.353,241.661 77.743 M160.800 108.642 C 147.658 112.160,143.393 127.625,152.975 137.020 C 162.304 146.167,177.651 141.726,180.969 128.918 C 184.047 117.040,172.562 105.493,160.800 108.642 M231.278 111.607 C 225.284 112.857,220.390 118.784,220.404 124.778 C 220.439 139.348,240.351 143.729,246.451 130.509 C 251.049 120.543,242.069 109.356,231.278 111.607 M221.800 166.796 C 261.243 168.849,285.002 174.723,285.241 182.481 C 285.369 186.656,284.254 189.938,280.989 195.000 C 265.988 218.257,210.942 256.799,196.700 254.016 C 179.212 250.598,134.809 219.736,121.000 201.401 C 105.743 181.144,112.971 174.174,154.800 168.809 C 170.320 166.818,203.231 165.829,221.800 166.796 M267.221 235.527 C 306.966 255.678,337.287 294.423,345.804 335.944 C 346.136 337.564,346.495 339.031,346.603 339.204 C 348.964 343.025,350.379 377.207,348.553 386.336 L 348.300 387.601 199.650 387.501 L 51.000 387.400 50.714 385.200 C 49.457 375.534,49.997 355.701,51.809 344.966 C 53.925 332.429,56.599 323.287,62.095 309.800 C 71.927 285.671,93.035 260.406,116.400 244.798 C 122.797 240.525,126.326 238.449,132.290 235.452 C 135.935 233.621,135.649 233.589,139.188 236.218 C 143.185 239.187,153.682 246.145,159.600 249.748 C 164.656 252.826,175.161 258.561,179.800 260.776 C 182.220 261.931,184.516 263.042,184.903 263.243 C 197.812 269.985,206.996 267.920,232.800 252.476 C 240.278 248.000,261.103 233.903,261.821 232.831 C 261.832 232.814,264.262 234.027,267.221 235.527 "
          stroke="none" fill="#232323" fill-rule="evenodd"></path>
    <path id="path1"
          d="M160.800 75.255 C 134.906 77.843,121.723 118.726,138.110 145.625 C 142.466 152.776,143.279 153.339,148.494 152.819 C 154.109 152.258,170.784 151.211,178.756 150.919 C 186.346 150.640,185.611 151.033,189.029 145.428 C 206.946 116.050,189.386 72.398,160.800 75.255 M229.000 77.398 C 203.212 82.696,193.022 124.118,211.653 147.913 C 213.824 150.686,214.152 150.785,221.200 150.802 C 223.730 150.808,231.290 151.169,238.000 151.603 C 244.710 152.038,250.713 152.395,251.339 152.397 C 253.962 152.404,260.148 143.816,263.024 136.174 C 266.089 128.032,266.908 114.582,264.839 106.400 C 259.734 86.217,244.819 74.147,229.000 77.398 M171.710 109.498 C 182.347 114.479,184.985 128.222,176.952 136.810 C 168.979 145.333,154.539 143.077,149.306 132.489 C 142.310 118.334,157.434 102.814,171.710 109.498 M236.928 111.398 C 248.736 114.474,251.890 128.237,242.531 135.844 C 235.719 141.380,225.351 138.802,221.440 130.600 C 216.656 120.566,226.286 108.626,236.928 111.398 M259.978 234.605 C 256.704 237.093,256.213 237.451,253.400 239.404 C 241.432 247.716,231.821 253.730,223.200 258.302 C 221.330 259.294,219.440 260.322,219.000 260.587 C 213.982 263.610,202.761 267.600,199.278 267.600 C 189.858 267.600,162.874 253.681,139.146 236.582 L 135.691 234.092 130.352 236.870 C 101.015 252.129,76.904 277.644,63.564 307.547 C 62.226 310.546,60.971 313.360,60.775 313.800 C 52.862 331.558,48.291 363.496,50.871 383.000 L 51.400 387.000 199.692 387.101 L 347.984 387.201 348.173 386.301 C 349.597 379.498,349.360 357.323,347.760 347.600 C 339.683 298.519,311.567 259.096,268.539 236.522 C 261.742 232.957,262.057 233.027,259.978 234.605 "
          stroke="none" fill="#fbfbfb" fill-rule="evenodd"></path>
    <path id="path2"
          d="M-0.000 173.251 L -0.000 346.501 3.163 341.951 C 7.001 336.428,8.455 334.477,13.684 327.836 C 15.519 325.505,19.425 320.921,22.406 317.600 C 50.618 286.171,72.108 255.390,78.653 237.035 C 78.960 236.174,79.364 235.274,79.552 235.035 C 79.740 234.796,80.212 233.610,80.600 232.400 C 80.988 231.190,81.438 230.020,81.600 229.800 C 81.762 229.580,82.198 228.410,82.568 227.200 C 82.939 225.990,83.404 224.703,83.600 224.339 C 83.797 223.976,84.243 222.536,84.593 221.139 C 84.942 219.743,85.398 218.240,85.607 217.800 C 86.567 215.778,89.289 202.121,90.192 194.800 C 91.766 182.046,92.287 169.091,92.357 141.000 C 92.408 120.434,92.832 107.420,93.594 103.000 C 93.822 101.680,94.353 98.260,94.774 95.400 C 97.172 79.102,103.207 62.522,110.499 52.200 C 111.120 51.320,112.083 49.912,112.637 49.072 C 116.561 43.125,126.096 34.003,133.100 29.494 C 134.035 28.892,135.475 27.961,136.300 27.424 C 142.770 23.212,156.479 17.885,165.047 16.255 C 166.612 15.957,168.087 15.594,168.323 15.447 C 169.044 15.002,181.775 13.573,189.161 13.108 C 198.641 12.512,219.356 13.935,224.468 15.533 C 225.201 15.762,227.330 16.248,229.200 16.613 C 231.070 16.977,232.771 17.438,232.980 17.638 C 233.189 17.837,233.684 18.000,234.079 18.000 C 234.902 18.000,242.603 20.635,246.246 22.163 C 251.583 24.400,259.899 29.096,263.400 31.849 C 264.060 32.368,265.025 33.110,265.544 33.496 C 281.578 45.452,293.986 67.921,297.410 91.200 C 297.750 93.510,298.107 95.670,298.203 96.000 C 298.952 98.557,299.308 107.335,299.587 130.200 C 299.764 144.720,300.118 158.940,300.372 161.800 C 301.701 176.731,302.089 180.264,302.961 185.400 C 304.040 191.753,305.567 198.751,306.582 202.000 C 309.497 211.322,311.469 216.931,312.562 219.000 C 312.910 219.660,313.196 220.339,313.198 220.508 C 313.208 221.874,321.780 238.338,326.887 246.800 C 328.608 249.653,337.660 263.184,339.302 265.357 C 340.236 266.595,341.990 268.972,343.200 270.641 C 344.410 272.309,346.211 274.693,347.202 275.937 C 348.193 277.182,349.772 279.212,350.711 280.449 C 352.414 282.692,358.349 289.968,360.949 293.000 C 361.704 293.880,364.462 297.120,367.079 300.200 C 369.695 303.280,372.481 306.520,373.270 307.400 C 374.058 308.280,376.370 310.890,378.407 313.200 C 380.443 315.510,382.766 318.120,383.568 319.000 C 385.628 321.261,390.759 327.394,392.770 330.000 C 393.703 331.210,395.487 333.544,396.734 335.187 C 397.980 336.830,399.219 338.450,399.487 338.787 C 399.871 339.269,399.977 303.168,399.987 169.700 L 400.000 0.000 200.000 0.000 L 0.000 0.000 -0.000 173.251 M184.200 167.239 C 173.098 167.549,154.559 169.066,148.200 170.184 C 146.440 170.494,143.650 170.949,142.000 171.195 C 128.117 173.268,116.946 177.767,114.830 182.139 C 111.565 188.883,120.261 202.688,136.540 216.600 C 137.827 217.700,139.105 218.811,139.380 219.069 C 141.045 220.629,151.960 229.004,154.800 230.901 C 155.350 231.268,157.060 232.465,158.600 233.561 C 160.140 234.656,162.480 236.219,163.800 237.034 C 165.120 237.848,167.189 239.158,168.397 239.943 C 179.936 247.445,194.036 253.764,199.200 253.747 C 203.050 253.735,210.348 250.916,218.047 246.467 C 219.063 245.880,221.313 244.600,223.047 243.621 C 224.781 242.643,226.412 241.653,226.672 241.421 C 226.932 241.190,227.900 240.550,228.823 240.000 C 233.169 237.411,244.497 229.532,248.630 226.225 C 249.747 225.331,251.268 224.150,252.011 223.600 C 269.192 210.882,284.014 193.169,284.686 184.550 L 284.908 181.699 283.257 179.908 C 276.900 173.012,251.690 168.239,216.211 167.213 C 201.054 166.775,200.807 166.775,184.200 167.239 "
          stroke="none" fill="#fcbc24" fill-rule="evenodd"></path>
    <path id="path3"
          d="M192.480 13.498 C 194.394 13.571,197.634 13.571,199.680 13.498 C 201.726 13.426,200.160 13.366,196.200 13.365 C 192.240 13.365,190.566 13.424,192.480 13.498 M183.300 13.876 C 183.685 13.976,184.315 13.976,184.700 13.876 C 185.085 13.775,184.770 13.693,184.000 13.693 C 183.230 13.693,182.915 13.775,183.300 13.876 M207.700 13.876 C 208.085 13.976,208.715 13.976,209.100 13.876 C 209.485 13.775,209.170 13.693,208.400 13.693 C 207.630 13.693,207.315 13.775,207.700 13.876 M175.300 14.676 C 175.685 14.776,176.315 14.776,176.700 14.676 C 177.085 14.575,176.770 14.493,176.000 14.493 C 175.230 14.493,174.915 14.575,175.300 14.676 M216.600 14.769 C 219.175 15.304,222.381 15.629,221.131 15.228 C 220.543 15.040,218.923 14.785,217.531 14.661 C 215.611 14.491,215.386 14.517,216.600 14.769 M171.200 15.220 C 170.526 15.449,170.851 15.484,172.200 15.328 C 173.300 15.201,174.275 15.031,174.367 14.949 C 174.682 14.668,172.199 14.880,171.200 15.220 M162.600 16.989 C 160.452 17.697,161.297 17.724,163.800 17.028 C 164.900 16.722,165.440 16.469,165.000 16.467 C 164.560 16.464,163.480 16.699,162.600 16.989 M227.800 16.800 C 228.240 16.989,228.960 17.138,229.400 17.132 C 230.043 17.123,230.004 17.057,229.200 16.800 C 227.832 16.362,226.781 16.362,227.800 16.800 M155.800 18.986 C 154.255 19.693,154.974 19.703,156.800 19.000 C 157.570 18.703,157.930 18.455,157.600 18.448 C 157.270 18.442,156.460 18.683,155.800 18.986 M236.000 19.000 C 237.826 19.703,238.545 19.693,237.000 18.986 C 236.340 18.683,235.530 18.442,235.200 18.448 C 234.870 18.455,235.230 18.703,236.000 19.000 M241.558 20.837 C 242.525 21.266,243.388 21.545,243.475 21.458 C 243.648 21.286,240.565 19.982,240.092 20.028 C 239.931 20.044,240.591 20.408,241.558 20.837 M150.000 21.000 C 149.450 21.314,149.180 21.572,149.400 21.572 C 149.620 21.572,150.250 21.314,150.800 21.000 C 151.350 20.686,151.620 20.428,151.400 20.428 C 151.180 20.428,150.550 20.686,150.000 21.000 M145.200 23.000 C 144.650 23.314,144.380 23.572,144.600 23.572 C 144.820 23.572,145.450 23.314,146.000 23.000 C 146.550 22.686,146.820 22.428,146.600 22.428 C 146.380 22.428,145.750 22.686,145.200 23.000 M246.800 23.000 C 247.350 23.314,247.980 23.572,248.200 23.572 C 248.420 23.572,248.150 23.314,247.600 23.000 C 247.050 22.686,246.420 22.428,246.200 22.428 C 245.980 22.428,246.250 22.686,246.800 23.000 M137.700 26.846 C 136.337 27.719,135.895 28.306,137.100 27.643 C 138.018 27.139,139.456 26.027,139.200 26.019 C 139.090 26.016,138.415 26.388,137.700 26.846 M260.400 30.146 C 260.400 30.256,260.940 30.730,261.600 31.200 C 262.260 31.670,262.800 31.964,262.800 31.854 C 262.800 31.744,262.260 31.270,261.600 30.800 C 260.940 30.330,260.400 30.036,260.400 30.146 M125.969 35.151 C 123.896 36.884,121.120 39.443,119.800 40.837 C 118.159 42.570,118.601 42.235,121.200 39.779 C 123.290 37.803,126.125 35.308,127.500 34.234 C 129.766 32.465,130.259 32.000,129.869 32.000 C 129.797 32.000,128.042 33.418,125.969 35.151 M263.200 32.116 C 263.200 32.394,269.161 37.201,269.494 37.191 C 269.662 37.186,269.408 36.871,268.928 36.491 C 268.448 36.111,266.963 34.933,265.628 33.873 C 264.293 32.814,263.200 32.023,263.200 32.116 M272.800 40.600 C 274.217 42.030,275.467 43.200,275.577 43.200 C 275.687 43.200,274.617 42.030,273.200 40.600 C 271.783 39.170,270.533 38.000,270.423 38.000 C 270.313 38.000,271.383 39.170,272.800 40.600 M278.975 47.732 C 279.591 48.539,280.176 49.200,280.275 49.200 C 280.553 49.200,278.821 46.860,278.309 46.544 C 278.059 46.389,278.359 46.924,278.975 47.732 M112.800 49.200 C 112.330 49.860,112.036 50.400,112.146 50.400 C 112.256 50.400,112.730 49.860,113.200 49.200 C 113.670 48.540,113.964 48.000,113.854 48.000 C 113.744 48.000,113.270 48.540,112.800 49.200 M107.014 58.235 C 106.641 58.804,106.405 59.338,106.489 59.422 C 106.573 59.507,106.958 59.041,107.344 58.388 C 108.206 56.928,107.948 56.809,107.014 58.235 M286.800 60.000 C 287.249 60.880,287.706 61.600,287.816 61.600 C 287.926 61.600,287.649 60.880,287.200 60.000 C 286.751 59.120,286.294 58.400,286.184 58.400 C 286.074 58.400,286.351 59.120,286.800 60.000 M288.678 63.795 C 289.044 64.562,289.414 65.119,289.501 65.032 C 289.684 64.849,288.470 62.400,288.196 62.400 C 288.095 62.400,288.312 63.028,288.678 63.795 M102.865 66.617 C 102.195 68.088,102.323 68.402,103.047 67.065 C 103.386 66.440,103.588 65.854,103.496 65.763 C 103.405 65.671,103.121 66.056,102.865 66.617 M290.428 67.800 C 290.428 68.020,290.686 68.650,291.000 69.200 C 291.314 69.750,291.572 70.020,291.572 69.800 C 291.572 69.580,291.314 68.950,291.000 68.400 C 290.686 67.850,290.428 67.580,290.428 67.800 M160.494 74.807 C 159.115 74.957,157.855 75.220,157.694 75.393 C 157.532 75.565,158.090 75.581,158.934 75.429 C 160.765 75.097,166.205 75.075,168.303 75.390 C 169.340 75.546,169.554 75.508,169.000 75.266 C 167.794 74.741,163.319 74.500,160.494 74.807 M171.600 76.098 C 171.923 76.418,175.600 77.971,175.600 77.788 C 175.600 77.696,175.105 77.369,174.500 77.061 C 173.302 76.452,171.278 75.780,171.600 76.098 M98.846 77.639 C 98.601 78.343,98.413 79.118,98.428 79.360 C 98.444 79.602,98.714 79.096,99.030 78.235 C 99.345 77.374,99.533 76.600,99.448 76.515 C 99.362 76.429,99.092 76.935,98.846 77.639 M151.209 77.814 C 149.785 78.582,148.345 79.513,148.009 79.883 C 147.453 80.498,147.461 80.510,148.103 80.026 C 148.490 79.735,150.110 78.804,151.703 77.959 C 153.297 77.113,154.420 76.420,154.200 76.420 C 153.980 76.419,152.634 77.046,151.209 77.814 M229.861 76.793 C 228.794 76.987,227.804 77.264,227.661 77.410 C 227.517 77.556,228.300 77.523,229.400 77.337 C 232.102 76.882,237.838 76.991,239.778 77.535 C 240.645 77.779,241.427 77.906,241.515 77.818 C 242.302 77.032,233.037 76.217,229.861 76.793 M176.800 78.501 C 176.800 78.607,177.527 79.175,178.416 79.763 C 179.304 80.351,181.419 82.130,183.116 83.716 C 185.033 85.509,185.595 85.916,184.600 84.793 C 182.428 82.340,176.800 77.800,176.800 78.501 M223.242 78.834 C 222.715 79.045,222.384 79.317,222.507 79.440 C 222.629 79.562,223.240 79.386,223.865 79.047 C 225.121 78.366,224.739 78.235,223.242 78.834 M243.633 78.549 C 244.045 78.917,246.400 80.000,246.400 79.821 C 246.400 79.590,244.182 78.400,243.753 78.400 C 243.596 78.400,243.542 78.467,243.633 78.549 M294.650 80.400 C 294.790 81.170,295.061 82.160,295.254 82.600 C 295.494 83.149,295.524 82.961,295.350 82.000 C 295.210 81.230,294.939 80.240,294.746 79.800 C 294.506 79.251,294.476 79.439,294.650 80.400 M219.878 80.791 C 218.845 81.446,218.000 82.069,218.000 82.175 C 218.000 82.280,218.900 81.807,220.000 81.124 C 221.764 80.027,222.291 79.600,221.878 79.600 C 221.811 79.600,220.911 80.136,219.878 80.791 M145.104 82.052 C 143.228 83.659,140.014 87.478,138.582 89.800 C 137.493 91.566,138.044 90.952,140.375 87.800 C 141.514 86.260,143.560 83.971,144.923 82.713 C 147.781 80.075,147.894 79.662,145.104 82.052 M250.400 82.467 C 250.730 82.793,252.170 84.121,253.600 85.418 L 256.200 87.776 254.200 85.656 C 253.100 84.490,251.660 83.163,251.000 82.706 C 250.340 82.249,250.070 82.142,250.400 82.467 M215.600 84.055 C 214.610 84.946,214.160 85.494,214.600 85.272 C 215.341 84.898,217.967 82.379,217.575 82.417 C 217.479 82.426,216.590 83.163,215.600 84.055 M96.800 85.200 C 96.530 86.324,96.403 87.336,96.516 87.449 C 96.629 87.562,96.923 86.717,97.169 85.569 C 97.752 82.854,97.438 82.540,96.800 85.200 M212.000 87.700 C 209.959 90.300,209.889 90.400,210.088 90.400 C 210.419 90.400,213.693 86.360,213.510 86.177 C 213.413 86.080,212.733 86.765,212.000 87.700 M186.799 87.900 C 187.322 88.615,187.813 89.200,187.889 89.200 C 188.193 89.200,187.201 87.700,186.545 87.167 C 186.113 86.816,186.210 87.096,186.799 87.900 M296.673 89.600 C 296.804 90.590,296.976 91.475,297.056 91.567 C 297.357 91.914,297.128 89.364,296.790 88.600 C 296.553 88.066,296.514 88.398,296.673 89.600 M259.284 92.802 C 260.181 94.351,260.985 95.548,261.071 95.462 C 261.258 95.275,258.440 90.472,257.975 90.184 C 257.798 90.075,258.387 91.253,259.284 92.802 M209.353 91.300 C 207.976 93.636,207.886 93.835,208.587 93.000 C 209.400 92.032,210.100 90.800,209.838 90.800 C 209.733 90.800,209.515 91.025,209.353 91.300 M137.014 92.235 C 136.641 92.804,136.427 93.361,136.539 93.472 C 136.650 93.583,137.029 93.118,137.381 92.437 C 138.159 90.933,137.944 90.815,137.014 92.235 M190.678 94.195 C 191.044 94.962,191.414 95.519,191.501 95.432 C 191.684 95.249,190.470 92.800,190.196 92.800 C 190.095 92.800,190.312 93.428,190.678 94.195 M94.585 96.585 C 94.430 97.823,94.393 98.927,94.503 99.037 C 94.613 99.147,94.830 98.223,94.985 96.985 C 95.139 95.746,95.176 94.643,95.066 94.533 C 94.956 94.423,94.739 95.346,94.585 96.585 M206.814 95.574 C 206.307 96.521,206.284 96.919,206.752 96.630 C 207.105 96.412,207.655 94.800,207.377 94.800 C 207.295 94.800,207.042 95.148,206.814 95.574 M134.865 96.617 C 134.195 98.088,134.323 98.402,135.047 97.065 C 135.386 96.440,135.588 95.854,135.496 95.763 C 135.405 95.671,135.121 96.056,134.865 96.617 M192.235 97.600 C 192.381 98.150,192.754 99.050,193.064 99.600 L 193.629 100.600 193.365 99.600 C 193.219 99.050,192.846 98.150,192.536 97.600 L 191.971 96.600 192.235 97.600 M262.235 98.400 C 262.381 98.950,262.754 99.850,263.064 100.400 L 263.629 101.400 263.365 100.400 C 263.219 99.850,262.846 98.950,262.536 98.400 L 261.971 97.400 262.235 98.400 M205.050 99.591 C 204.693 100.485,204.410 101.438,204.422 101.708 C 204.434 101.979,204.800 101.321,205.236 100.247 C 205.672 99.173,205.954 98.221,205.864 98.131 C 205.774 98.041,205.408 98.698,205.050 99.591 M133.045 101.450 C 132.690 102.491,132.413 103.535,132.429 103.771 C 132.445 104.007,132.805 103.224,133.228 102.032 C 133.651 100.840,133.928 99.795,133.844 99.710 C 133.759 99.626,133.400 100.408,133.045 101.450 M298.721 108.400 C 298.825 112.030,298.975 115.075,299.055 115.167 C 299.316 115.467,299.128 106.255,298.827 104.000 C 298.665 102.790,298.618 104.770,298.721 108.400 M264.259 104.200 C 264.785 106.534,265.209 107.501,264.961 105.800 C 264.832 104.920,264.561 103.930,264.358 103.600 C 264.111 103.198,264.078 103.397,264.259 104.200 M93.693 104.800 C 93.693 105.570,93.775 105.885,93.876 105.500 C 93.976 105.115,93.976 104.485,93.876 104.100 C 93.775 103.715,93.693 104.030,93.693 104.800 M194.433 104.000 C 194.423 104.330,194.678 105.500,194.998 106.600 L 195.580 108.600 195.339 106.800 C 195.081 104.872,194.464 102.964,194.433 104.000 M202.800 107.200 C 202.518 108.531,202.378 109.711,202.489 109.822 C 202.600 109.933,202.908 108.921,203.173 107.573 C 203.439 106.225,203.579 105.045,203.485 104.951 C 203.390 104.857,203.082 105.869,202.800 107.200 M93.320 110.400 C 93.320 111.610,93.395 112.105,93.487 111.500 C 93.578 110.895,93.578 109.905,93.487 109.300 C 93.395 108.695,93.320 109.190,93.320 110.400 M130.933 110.666 C 130.468 113.928,130.612 125.071,131.145 127.000 L 131.586 128.600 131.408 127.000 C 130.872 122.173,130.774 116.515,131.163 112.836 C 131.639 108.348,131.479 106.842,130.933 110.666 M158.600 108.986 C 157.055 109.693,157.774 109.703,159.600 109.000 C 160.370 108.703,160.730 108.455,160.400 108.448 C 160.070 108.442,159.260 108.683,158.600 108.986 M169.600 109.000 C 171.426 109.703,172.145 109.693,170.600 108.986 C 169.940 108.683,169.130 108.442,168.800 108.448 C 168.470 108.455,168.830 108.703,169.600 109.000 M232.000 111.220 C 231.326 111.449,231.651 111.484,233.000 111.328 C 234.100 111.201,235.075 111.031,235.167 110.949 C 235.482 110.668,232.999 110.880,232.000 111.220 M176.400 113.000 C 177.146 113.770,177.847 114.400,177.957 114.400 C 178.067 114.400,177.546 113.770,176.800 113.000 C 176.054 112.230,175.353 111.600,175.243 111.600 C 175.133 111.600,175.654 112.230,176.400 113.000 M152.175 113.300 L 151.000 114.600 152.300 113.425 C 153.512 112.330,153.784 112.000,153.475 112.000 C 153.406 112.000,152.821 112.585,152.175 113.300 M196.131 115.400 C 196.133 116.940,196.205 117.521,196.292 116.691 C 196.379 115.861,196.377 114.601,196.289 113.891 C 196.200 113.181,196.129 113.860,196.131 115.400 M92.663 121.461 C 92.519 125.788,92.431 137.355,92.469 147.164 L 92.537 165.000 92.822 139.400 C 92.978 125.320,93.066 113.754,93.017 113.697 C 92.967 113.640,92.808 117.134,92.663 121.461 M266.154 118.400 C 266.154 121.150,266.218 122.275,266.296 120.900 C 266.374 119.525,266.374 117.275,266.296 115.900 C 266.218 114.525,266.154 115.650,266.154 118.400 M224.158 115.300 C 222.931 116.629,221.497 118.522,222.263 117.800 C 223.117 116.995,225.688 114.000,225.525 114.000 C 225.433 114.000,224.817 114.585,224.158 115.300 M201.720 118.400 C 201.720 119.610,201.795 120.105,201.887 119.500 C 201.978 118.895,201.978 117.905,201.887 117.300 C 201.795 116.695,201.720 117.190,201.720 118.400 M148.865 118.217 C 148.195 119.688,148.323 120.002,149.047 118.665 C 149.386 118.040,149.588 117.454,149.496 117.363 C 149.405 117.271,149.121 117.656,148.865 118.217 M246.278 118.995 C 246.644 119.762,247.014 120.319,247.101 120.232 C 247.284 120.049,246.070 117.600,245.796 117.600 C 245.695 117.600,245.912 118.228,246.278 118.995 M299.381 133.000 C 299.381 141.140,299.434 144.413,299.500 140.274 C 299.565 136.134,299.565 129.474,299.499 125.474 C 299.434 121.473,299.381 124.860,299.381 133.000 M180.659 119.800 C 181.185 122.134,181.609 123.101,181.361 121.400 C 181.232 120.520,180.961 119.530,180.758 119.200 C 180.511 118.798,180.478 118.997,180.659 119.800 M196.128 121.200 C 196.128 122.630,196.201 123.215,196.289 122.500 C 196.378 121.785,196.378 120.615,196.289 119.900 C 196.201 119.185,196.128 119.770,196.128 121.200 M220.846 120.439 C 220.601 121.143,220.413 121.918,220.428 122.160 C 220.444 122.402,220.714 121.896,221.030 121.035 C 221.345 120.174,221.533 119.400,221.448 119.315 C 221.362 119.229,221.092 119.735,220.846 120.439 M247.724 125.000 C 247.726 126.320,247.801 126.812,247.890 126.093 C 247.979 125.374,247.977 124.294,247.886 123.693 C 247.795 123.092,247.722 123.680,247.724 125.000 M202.093 124.400 C 202.093 125.170,202.175 125.485,202.276 125.100 C 202.376 124.715,202.376 124.085,202.276 123.700 C 202.175 123.315,202.093 123.630,202.093 124.400 M202.636 128.153 C 202.762 129.227,203.024 130.487,203.218 130.953 C 203.453 131.519,203.488 131.203,203.321 130.000 C 202.954 127.355,202.353 125.732,202.636 128.153 M180.913 129.041 C 180.667 130.118,180.529 131.062,180.606 131.140 C 180.829 131.362,181.663 127.990,181.504 127.512 C 181.426 127.277,181.160 127.965,180.913 129.041 M220.434 127.800 C 220.422 128.240,220.587 128.870,220.800 129.200 C 221.314 129.995,221.314 128.996,220.800 127.800 L 220.456 127.000 220.434 127.800 M264.829 129.829 C 264.554 131.057,264.419 132.152,264.529 132.263 C 264.640 132.373,264.942 131.445,265.200 130.200 C 265.458 128.955,265.593 127.860,265.499 127.766 C 265.405 127.672,265.103 128.600,264.829 129.829 M194.829 130.629 C 194.554 131.857,194.419 132.952,194.529 133.063 C 194.640 133.173,194.942 132.245,195.200 131.000 C 195.458 129.755,195.593 128.660,195.499 128.566 C 195.405 128.472,195.103 129.400,194.829 130.629 M246.695 129.996 C 246.348 130.878,246.149 131.600,246.253 131.600 C 246.523 131.600,247.678 128.745,247.486 128.552 C 247.397 128.464,247.041 129.113,246.695 129.996 M148.428 130.600 C 148.428 130.820,148.686 131.450,149.000 132.000 C 149.314 132.550,149.572 132.820,149.572 132.600 C 149.572 132.380,149.314 131.750,149.000 131.200 C 148.686 130.650,148.428 130.380,148.428 130.600 M132.400 133.129 C 132.400 133.680,133.681 137.253,133.826 137.107 C 134.001 136.932,132.796 132.800,132.570 132.800 C 132.476 132.800,132.400 132.948,132.400 133.129 M243.781 134.500 L 242.200 136.200 243.900 134.619 C 245.481 133.148,245.784 132.800,245.481 132.800 C 245.416 132.800,244.651 133.565,243.781 134.500 M150.699 135.000 C 151.154 135.660,152.123 136.740,152.852 137.400 C 153.830 138.287,153.719 138.078,152.426 136.600 C 150.066 133.902,149.720 133.582,150.699 135.000 M176.250 136.902 C 174.737 138.455,174.017 139.353,174.650 138.898 C 175.763 138.096,177.685 136.138,178.770 134.700 C 179.719 133.442,179.046 134.030,176.250 136.902 M204.629 135.600 C 204.776 136.150,205.064 136.870,205.267 137.200 C 205.525 137.617,205.557 137.495,205.371 136.800 C 205.224 136.250,204.936 135.530,204.733 135.200 C 204.475 134.783,204.443 134.905,204.629 135.600 M192.633 138.033 C 192.267 138.950,192.042 139.775,192.133 139.867 C 192.225 139.958,192.600 139.283,192.967 138.367 C 193.333 137.450,193.558 136.625,193.467 136.533 C 193.375 136.442,193.000 137.117,192.633 138.033 M262.467 137.580 C 262.233 138.251,262.127 138.800,262.231 138.800 C 262.501 138.800,263.256 136.722,263.057 136.524 C 262.967 136.433,262.701 136.908,262.467 137.580 M232.691 138.689 C 233.401 138.777,234.661 138.779,235.491 138.692 C 236.321 138.605,235.740 138.533,234.200 138.531 C 232.660 138.529,231.981 138.600,232.691 138.689 M134.428 139.000 C 134.428 139.220,134.686 139.850,135.000 140.400 C 135.314 140.950,135.572 141.220,135.572 141.000 C 135.572 140.780,135.314 140.150,135.000 139.600 C 134.686 139.050,134.428 138.780,134.428 139.000 M206.000 138.945 C 206.000 139.395,208.279 143.729,208.973 144.600 C 209.324 145.040,208.858 143.960,207.939 142.200 C 206.135 138.749,206.000 138.523,206.000 138.945 M260.881 141.009 C 260.402 141.994,260.094 142.800,260.197 142.800 C 260.468 142.800,262.084 139.551,261.903 139.370 C 261.819 139.286,261.359 140.024,260.881 141.009 M158.000 140.733 C 158.330 140.936,159.050 141.224,159.600 141.371 C 160.295 141.557,160.417 141.525,160.000 141.267 C 159.670 141.064,158.950 140.776,158.400 140.629 C 157.705 140.443,157.583 140.475,158.000 140.733 M169.800 141.014 C 169.140 141.317,168.870 141.566,169.200 141.568 C 169.530 141.570,170.250 141.314,170.800 141.000 C 172.065 140.277,171.389 140.287,169.800 141.014 M190.678 142.605 C 190.312 143.372,190.095 144.000,190.196 144.000 C 190.470 144.000,191.684 141.551,191.501 141.368 C 191.414 141.281,191.044 141.838,190.678 142.605 M136.409 143.500 C 136.414 143.665,136.785 144.250,137.233 144.800 L 138.048 145.800 137.414 144.500 C 136.811 143.265,136.389 142.845,136.409 143.500 M258.911 144.500 C 258.129 145.511,257.863 146.132,258.336 145.840 C 258.810 145.547,259.757 144.000,259.463 144.000 C 259.372 144.000,259.124 144.225,258.911 144.500 M189.353 144.900 C 189.190 145.175,188.775 145.843,188.429 146.385 C 188.038 146.997,187.990 147.252,188.303 147.059 C 188.820 146.740,190.168 144.400,189.834 144.400 C 189.731 144.400,189.515 144.625,189.353 144.900 M210.391 146.788 C 210.857 147.441,211.442 148.102,211.691 148.256 C 211.941 148.411,211.641 147.876,211.025 147.068 C 209.688 145.315,209.184 145.092,210.391 146.788 M138.677 147.231 C 139.075 147.908,139.656 148.673,139.968 148.931 C 140.280 149.189,140.032 148.635,139.415 147.700 C 138.120 145.737,137.609 145.412,138.677 147.231 M255.387 149.217 C 252.921 152.127,252.623 152.297,249.600 152.525 C 248.040 152.642,248.118 152.670,250.180 152.730 L 252.559 152.800 254.501 150.732 C 256.354 148.758,258.212 146.400,257.915 146.400 C 257.838 146.400,256.700 147.668,255.387 149.217 M186.799 148.900 C 186.210 149.704,186.113 149.984,186.545 149.633 C 187.201 149.100,188.193 147.600,187.889 147.600 C 187.813 147.600,187.322 148.185,186.799 148.900 M213.287 150.100 C 214.397 151.184,214.486 151.200,219.544 151.200 C 222.365 151.200,226.908 151.315,229.637 151.456 C 232.367 151.596,234.499 151.600,234.375 151.464 C 234.251 151.328,229.617 151.065,224.078 150.881 C 215.000 150.578,213.915 150.469,213.084 149.772 C 212.576 149.348,212.668 149.495,213.287 150.100 M178.200 150.847 C 168.308 151.296,167.734 151.559,177.200 151.305 C 181.490 151.190,185.270 150.945,185.600 150.760 C 185.930 150.575,186.020 150.446,185.800 150.473 C 185.580 150.499,182.160 150.668,178.200 150.847 M163.300 151.887 C 163.905 151.978,164.895 151.978,165.500 151.887 C 166.105 151.795,165.610 151.720,164.400 151.720 C 163.190 151.720,162.695 151.795,163.300 151.887 M238.505 151.887 C 239.114 151.979,240.014 151.977,240.505 151.882 C 240.997 151.787,240.500 151.711,239.400 151.714 C 238.300 151.717,237.897 151.795,238.505 151.887 M143.037 152.815 C 143.837 153.615,143.967 153.619,149.826 153.069 C 153.112 152.760,155.054 152.483,154.142 152.454 C 153.231 152.424,150.645 152.589,148.396 152.820 C 144.866 153.182,144.213 153.154,143.622 152.620 C 142.603 151.698,142.091 151.869,143.037 152.815 M156.700 152.282 C 157.195 152.378,158.005 152.378,158.500 152.282 C 158.995 152.187,158.590 152.109,157.600 152.109 C 156.610 152.109,156.205 152.187,156.700 152.282 M244.905 152.287 C 245.514 152.379,246.414 152.377,246.905 152.282 C 247.397 152.187,246.900 152.111,245.800 152.114 C 244.700 152.117,244.297 152.195,244.905 152.287 M299.728 157.600 C 299.728 159.030,299.801 159.615,299.889 158.900 C 299.978 158.185,299.978 157.015,299.889 156.300 C 299.801 155.585,299.728 156.170,299.728 157.600 M300.093 164.000 C 300.093 164.770,300.175 165.085,300.276 164.700 C 300.376 164.315,300.376 163.685,300.276 163.300 C 300.175 162.915,300.093 163.230,300.093 164.000 M193.100 166.700 C 197.555 166.764,204.845 166.764,209.300 166.700 C 213.755 166.635,210.110 166.582,201.200 166.582 C 192.290 166.582,188.645 166.635,193.100 166.700 M173.800 167.205 C 172.480 167.353,174.280 167.388,177.800 167.282 C 181.320 167.176,184.275 167.024,184.367 166.945 C 184.638 166.709,176.403 166.912,173.800 167.205 M218.033 166.945 C 218.125 167.024,221.080 167.180,224.600 167.291 C 228.316 167.407,229.993 167.365,228.600 167.189 C 226.140 166.879,217.734 166.685,218.033 166.945 M92.140 170.800 C 92.140 172.670,92.209 173.435,92.293 172.500 C 92.377 171.565,92.377 170.035,92.293 169.100 C 92.209 168.165,92.140 168.930,92.140 170.800 M166.705 167.883 C 167.202 167.979,167.922 167.975,168.305 167.875 C 168.687 167.775,168.280 167.696,167.400 167.701 C 166.520 167.705,166.207 167.787,166.705 167.883 M234.305 167.883 C 234.802 167.979,235.522 167.975,235.905 167.875 C 236.287 167.775,235.880 167.696,235.000 167.701 C 234.120 167.705,233.807 167.787,234.305 167.883 M161.300 168.276 C 161.685 168.376,162.315 168.376,162.700 168.276 C 163.085 168.175,162.770 168.093,162.000 168.093 C 161.230 168.093,160.915 168.175,161.300 168.276 M239.700 168.276 C 240.085 168.376,240.715 168.376,241.100 168.276 C 241.485 168.175,241.170 168.093,240.400 168.093 C 239.630 168.093,239.315 168.175,239.700 168.276 M157.105 168.683 C 157.602 168.779,158.322 168.775,158.705 168.675 C 159.087 168.575,158.680 168.496,157.800 168.501 C 156.920 168.505,156.607 168.587,157.105 168.683 M244.800 168.770 C 247.556 169.259,252.070 169.616,250.468 169.219 C 249.736 169.037,247.756 168.790,246.068 168.669 C 243.887 168.514,243.521 168.543,244.800 168.770 M151.800 169.215 C 151.044 169.418,151.562 169.454,153.200 169.315 C 154.630 169.193,155.875 169.028,155.967 168.947 C 156.270 168.680,153.022 168.889,151.800 169.215 M300.687 171.800 C 300.808 173.560,300.974 175.075,301.054 175.167 C 301.333 175.485,301.152 171.790,300.810 170.200 C 300.563 169.051,300.529 169.502,300.687 171.800 M140.445 170.832 C 139.479 171.022,138.594 171.272,138.478 171.389 C 138.133 171.734,139.660 171.559,141.800 171.009 C 144.058 170.429,143.122 170.307,140.445 170.832 M261.000 171.200 C 262.692 171.631,264.144 171.631,262.800 171.200 C 262.250 171.024,261.350 170.883,260.800 170.887 C 259.902 170.894,259.922 170.926,261.000 171.200 M269.200 173.000 C 269.970 173.297,270.870 173.539,271.200 173.539 C 271.530 173.539,271.170 173.297,270.400 173.000 C 269.630 172.703,268.730 172.461,268.400 172.461 C 268.070 172.461,268.430 172.703,269.200 173.000 M130.200 173.200 C 129.696 173.417,129.622 173.544,130.000 173.544 C 130.330 173.544,130.960 173.389,131.400 173.200 C 131.904 172.983,131.978 172.856,131.600 172.856 C 131.270 172.856,130.640 173.011,130.200 173.200 M275.600 175.000 C 276.150 175.314,276.780 175.572,277.000 175.572 C 277.220 175.572,276.950 175.314,276.400 175.000 C 275.850 174.686,275.220 174.428,275.000 174.428 C 274.780 174.428,275.050 174.686,275.600 175.000 M301.293 176.800 C 301.293 177.570,301.375 177.885,301.476 177.500 C 301.576 177.115,301.576 176.485,301.476 176.100 C 301.375 175.715,301.293 176.030,301.293 176.800 M278.433 176.128 C 279.069 176.615,281.600 177.936,281.600 177.781 C 281.600 177.513,279.082 176.003,278.633 176.001 C 278.432 176.001,278.342 176.057,278.433 176.128 M282.000 178.125 C 282.000 178.194,282.585 178.779,283.300 179.425 L 284.600 180.600 283.425 179.300 C 282.330 178.088,282.000 177.816,282.000 178.125 M91.701 181.000 C 91.705 181.880,91.787 182.193,91.883 181.695 C 91.979 181.198,91.975 180.478,91.875 180.095 C 91.775 179.713,91.696 180.120,91.701 181.000 M113.720 185.600 C 113.720 186.810,113.795 187.305,113.887 186.700 C 113.978 186.095,113.978 185.105,113.887 184.500 C 113.795 183.895,113.720 184.390,113.720 185.600 M284.849 185.400 C 284.816 185.840,284.696 186.650,284.583 187.200 L 284.377 188.200 284.806 187.219 C 285.042 186.679,285.161 185.869,285.072 185.419 C 284.913 184.621,284.907 184.621,284.849 185.400 M302.679 186.800 C 303.044 189.433,303.623 191.035,303.330 188.600 C 303.198 187.500,302.941 186.240,302.759 185.800 C 302.561 185.318,302.529 185.716,302.679 186.800 M90.687 192.160 C 90.521 194.118,90.463 195.797,90.558 195.891 C 90.821 196.155,91.291 191.153,91.130 189.798 C 91.051 189.139,90.852 190.202,90.687 192.160 M114.618 190.900 C 114.768 191.395,115.055 191.976,115.256 192.191 C 115.457 192.406,115.419 192.001,115.172 191.291 C 114.665 189.838,114.197 189.508,114.618 190.900 M116.000 193.786 C 116.000 194.205,117.606 196.800,117.865 196.800 C 117.975 196.800,117.659 196.125,117.163 195.300 C 116.058 193.462,116.000 193.387,116.000 193.786 M304.806 197.433 C 304.809 197.855,304.995 198.470,305.218 198.800 C 305.515 199.238,305.552 199.076,305.356 198.200 C 305.027 196.729,304.798 196.410,304.806 197.433 M118.362 197.929 C 118.605 198.384,119.001 198.877,119.242 199.026 C 119.556 199.220,119.554 199.062,119.238 198.471 C 118.995 198.016,118.599 197.523,118.358 197.374 C 118.044 197.180,118.046 197.338,118.362 197.929 M276.857 200.194 C 275.506 201.840,274.404 203.325,274.409 203.494 C 274.418 203.824,274.769 203.417,277.723 199.652 C 280.424 196.210,279.814 196.591,276.857 200.194 M120.825 201.145 C 121.317 201.885,122.637 203.431,123.759 204.581 C 125.535 206.400,125.592 206.433,124.200 204.836 C 123.319 203.826,121.999 202.280,121.265 201.400 C 120.165 200.080,120.088 200.036,120.825 201.145 M306.461 203.200 C 306.461 203.530,306.703 204.430,307.000 205.200 C 307.297 205.970,307.539 206.330,307.539 206.000 C 307.539 205.670,307.297 204.770,307.000 204.000 C 306.703 203.230,306.461 202.870,306.461 203.200 M88.640 205.640 C 88.493 206.557,88.452 207.385,88.547 207.480 C 88.642 207.576,88.846 206.910,89.000 206.000 C 89.154 205.090,89.196 204.262,89.093 204.160 C 88.990 204.057,88.787 204.723,88.640 205.640 M268.794 209.100 L 263.800 214.200 268.900 209.206 C 273.637 204.567,274.181 204.000,273.894 204.000 C 273.836 204.000,271.541 206.295,268.794 209.100 M128.400 209.739 C 129.830 211.234,131.360 212.649,131.800 212.883 C 132.240 213.117,132.510 213.233,132.400 213.141 C 132.290 213.049,130.760 211.634,129.000 209.997 L 125.800 207.021 128.400 209.739 M308.426 209.600 C 308.427 209.930,308.699 210.650,309.031 211.200 L 309.633 212.200 309.368 211.200 C 308.984 209.748,308.424 208.797,308.426 209.600 M86.833 213.833 C 86.575 214.859,86.439 215.772,86.531 215.864 C 86.622 215.956,86.909 215.192,87.167 214.167 C 87.425 213.141,87.561 212.228,87.469 212.136 C 87.378 212.044,87.091 212.808,86.833 213.833 M133.607 214.537 C 134.784 215.886,140.978 221.200,141.372 221.200 C 141.522 221.200,140.420 220.181,138.923 218.934 C 137.425 217.688,135.393 215.933,134.407 215.034 C 133.420 214.136,133.060 213.912,133.607 214.537 M261.381 216.099 L 259.800 217.799 261.400 216.401 C 262.280 215.631,263.171 214.867,263.380 214.701 C 263.617 214.514,263.610 214.400,263.361 214.400 C 263.142 214.400,262.251 215.165,261.381 216.099 M310.629 215.600 C 310.776 216.150,311.064 216.870,311.267 217.200 C 311.525 217.617,311.557 217.495,311.371 216.800 C 311.224 216.250,310.936 215.530,310.733 215.200 C 310.475 214.783,310.443 214.905,310.629 215.600 M84.800 221.000 C 84.536 221.799,84.415 222.548,84.531 222.664 C 84.647 222.780,84.930 222.193,85.160 221.360 C 85.703 219.392,85.423 219.112,84.800 221.000 M313.007 221.479 C 313.607 222.914,314.000 223.562,314.000 223.116 C 314.000 222.684,312.785 220.000,312.589 220.000 C 312.479 220.000,312.667 220.666,313.007 221.479 M142.000 221.739 C 142.000 221.846,142.765 222.529,143.700 223.259 C 144.635 223.988,145.146 224.265,144.836 223.874 C 144.219 223.097,142.000 221.427,142.000 221.739 M250.600 225.044 L 249.000 226.476 250.700 225.204 C 252.163 224.110,252.691 223.583,252.300 223.606 C 252.245 223.609,251.480 224.256,250.600 225.044 M314.434 224.600 C 314.434 224.820,314.778 225.630,315.200 226.400 C 315.622 227.170,315.966 227.620,315.966 227.400 C 315.966 227.180,315.622 226.370,315.200 225.600 C 314.778 224.830,314.434 224.380,314.434 224.600 M147.344 225.909 C 147.660 226.421,150.000 228.153,150.000 227.875 C 150.000 227.776,149.339 227.191,148.532 226.575 C 147.724 225.959,147.189 225.659,147.344 225.909 M82.444 228.044 C 82.198 228.751,82.066 229.400,82.152 229.485 C 82.238 229.571,82.509 229.062,82.756 228.356 C 83.002 227.649,83.134 227.000,83.048 226.915 C 82.962 226.829,82.691 227.338,82.444 228.044 M245.600 228.849 C 244.206 230.071,244.205 230.072,245.488 229.219 C 246.196 228.748,246.882 228.191,247.012 227.981 C 247.397 227.357,247.077 227.554,245.600 228.849 M316.678 229.395 C 317.044 230.162,317.414 230.719,317.501 230.632 C 317.684 230.449,316.470 228.000,316.196 228.000 C 316.095 228.000,316.312 228.628,316.678 229.395 M153.200 230.385 C 153.750 230.846,154.560 231.410,155.000 231.638 C 155.546 231.922,155.482 231.787,154.800 231.215 C 154.250 230.754,153.440 230.190,153.000 229.962 C 152.454 229.678,152.518 229.813,153.200 230.385 M242.600 231.035 L 241.400 232.066 242.700 231.206 C 243.415 230.733,244.000 230.268,244.000 230.173 C 244.000 229.873,243.831 229.978,242.600 231.035 M80.650 232.791 C 79.747 235.047,79.887 235.383,80.837 233.242 C 81.266 232.275,81.545 231.412,81.458 231.325 C 81.371 231.238,81.008 231.898,80.650 232.791 M239.800 233.035 L 238.600 234.066 239.900 233.206 C 240.615 232.733,241.200 232.268,241.200 232.173 C 241.200 231.873,241.031 231.978,239.800 233.035 M261.168 233.500 C 260.729 234.080,260.729 234.120,261.168 233.731 C 261.459 233.473,261.975 233.369,262.314 233.499 C 262.719 233.655,262.832 233.575,262.642 233.268 C 262.237 232.613,261.786 232.684,261.168 233.500 M319.000 234.000 C 319.341 234.660,319.711 235.200,319.821 235.200 C 319.931 235.200,319.741 234.660,319.400 234.000 C 319.059 233.340,318.689 232.800,318.579 232.800 C 318.469 232.800,318.659 233.340,319.000 234.000 M131.500 235.825 C 129.575 236.806,128.000 237.698,128.000 237.808 C 128.000 237.987,135.160 234.529,135.567 234.154 C 136.150 233.615,134.521 234.285,131.500 235.825 M136.124 234.276 C 136.411 234.741,141.200 238.125,141.200 237.863 C 141.200 237.760,140.258 236.983,139.106 236.138 C 136.437 234.178,135.828 233.798,136.124 234.276 M259.000 235.023 C 258.254 235.656,258.115 235.891,258.633 235.643 C 259.376 235.287,260.725 233.997,260.349 234.002 C 260.267 234.003,259.660 234.463,259.000 235.023 M264.833 234.549 C 265.245 234.917,267.600 236.000,267.600 235.821 C 267.600 235.590,265.382 234.400,264.953 234.400 C 264.796 234.400,264.742 234.467,264.833 234.549 M78.865 237.017 C 78.195 238.488,78.323 238.802,79.047 237.465 C 79.386 236.840,79.588 236.254,79.496 236.163 C 79.405 236.071,79.121 236.456,78.865 237.017 M255.200 237.642 C 252.909 239.315,251.699 240.395,252.800 239.785 C 253.818 239.220,257.600 236.386,257.600 236.187 C 257.600 235.897,257.539 235.934,255.200 237.642 M269.800 237.200 C 270.460 237.637,271.180 237.995,271.400 237.995 C 271.620 237.995,271.260 237.637,270.600 237.200 C 269.940 236.763,269.220 236.405,269.000 236.405 C 268.780 236.405,269.140 236.763,269.800 237.200 M321.000 237.600 C 321.341 238.260,321.711 238.800,321.821 238.800 C 321.931 238.800,321.741 238.260,321.400 237.600 C 321.059 236.940,320.689 236.400,320.579 236.400 C 320.469 236.400,320.659 236.940,321.000 237.600 M125.900 238.827 C 125.075 239.263,124.400 239.708,124.400 239.818 C 124.400 239.927,125.120 239.649,126.000 239.200 C 126.880 238.751,127.600 238.297,127.600 238.192 C 127.600 237.930,127.597 237.931,125.900 238.827 M141.600 238.146 C 141.600 238.256,142.140 238.730,142.800 239.200 C 143.460 239.670,144.000 239.964,144.000 239.854 C 144.000 239.744,143.460 239.270,142.800 238.800 C 142.140 238.330,141.600 238.036,141.600 238.146 M165.400 238.607 C 165.840 238.966,166.560 239.435,167.000 239.651 L 167.800 240.044 167.000 239.393 C 166.560 239.034,165.840 238.565,165.400 238.349 L 164.600 237.956 165.400 238.607 M272.600 238.611 C 273.040 238.969,273.940 239.526,274.600 239.850 C 275.722 240.401,275.748 240.397,275.000 239.789 C 274.560 239.431,273.660 238.874,273.000 238.550 C 271.878 237.999,271.852 238.003,272.600 238.611 M228.500 240.446 C 227.137 241.319,226.695 241.906,227.900 241.243 C 228.818 240.739,230.256 239.627,230.000 239.619 C 229.890 239.616,229.215 239.988,228.500 240.446 M122.500 240.796 C 121.160 241.613,120.653 242.329,121.900 241.643 C 122.829 241.133,124.252 240.028,124.000 240.014 C 123.890 240.008,123.215 240.360,122.500 240.796 M168.600 240.607 C 169.040 240.966,169.760 241.435,170.200 241.651 L 171.000 242.044 170.200 241.393 C 169.760 241.034,169.040 240.565,168.600 240.349 L 167.800 239.956 168.600 240.607 M250.600 241.035 L 249.400 242.066 250.700 241.206 C 251.415 240.733,252.000 240.268,252.000 240.173 C 252.000 239.873,251.831 239.978,250.600 241.035 M278.000 241.740 C 278.000 241.845,278.942 242.511,280.094 243.220 C 281.245 243.928,281.976 244.253,281.717 243.940 C 281.206 243.325,278.000 241.427,278.000 241.740 M119.300 242.796 C 117.960 243.613,117.453 244.329,118.700 243.643 C 119.629 243.133,121.052 242.028,120.800 242.014 C 120.690 242.008,120.015 242.360,119.300 242.796 M247.754 242.868 C 245.922 244.247,245.692 244.575,247.131 243.757 C 248.367 243.054,249.550 242.000,249.103 242.000 C 248.996 242.000,248.389 242.391,247.754 242.868 M174.000 243.779 C 174.000 243.889,174.540 244.259,175.200 244.600 C 175.860 244.941,176.400 245.131,176.400 245.021 C 176.400 244.911,175.860 244.541,175.200 244.200 C 174.540 243.859,174.000 243.669,174.000 243.779 M116.154 244.868 C 114.529 246.091,114.063 246.573,115.000 246.060 C 116.040 245.491,117.872 244.020,117.554 244.009 C 117.419 244.004,116.789 244.391,116.154 244.868 M151.000 244.610 C 152.215 245.595,153.355 246.174,153.023 245.637 C 152.872 245.394,152.176 244.917,151.475 244.578 C 150.291 244.006,150.257 244.008,151.000 244.610 M221.300 244.846 C 219.937 245.719,219.495 246.306,220.700 245.643 C 221.618 245.139,223.056 244.027,222.800 244.019 C 222.690 244.016,222.015 244.388,221.300 244.846 M244.344 245.223 C 243.450 246.002,243.446 246.023,244.278 245.620 C 244.760 245.387,245.266 245.017,245.401 244.798 C 245.795 244.162,245.363 244.335,244.344 245.223 M177.600 245.784 C 177.600 245.894,178.320 246.351,179.200 246.800 C 180.080 247.249,180.800 247.526,180.800 247.416 C 180.800 247.306,180.080 246.849,179.200 246.400 C 178.320 245.951,177.600 245.674,177.600 245.784 M241.944 246.823 C 241.050 247.602,241.046 247.623,241.878 247.220 C 242.360 246.987,242.866 246.617,243.001 246.398 C 243.395 245.762,242.963 245.935,241.944 246.823 M284.800 246.146 C 284.800 246.256,285.340 246.730,286.000 247.200 C 286.660 247.670,287.200 247.964,287.200 247.854 C 287.200 247.744,286.660 247.270,286.000 246.800 C 285.340 246.330,284.800 246.036,284.800 246.146 M112.200 247.632 C 109.827 249.426,109.508 249.932,111.733 248.372 C 113.414 247.194,114.329 246.375,113.924 246.411 C 113.856 246.417,113.080 246.967,112.200 247.632 M156.200 247.890 C 156.420 248.100,157.320 248.676,158.200 249.170 C 159.080 249.665,159.440 249.770,159.000 249.404 C 158.106 248.661,155.572 247.291,156.200 247.890 M239.300 248.446 C 237.937 249.319,237.495 249.906,238.700 249.243 C 239.618 248.739,241.056 247.627,240.800 247.619 C 240.690 247.616,240.015 247.988,239.300 248.446 M214.300 248.629 C 212.805 249.440,212.896 249.778,214.400 249.000 C 215.060 248.659,215.600 248.294,215.600 248.190 C 215.600 247.932,215.557 247.947,214.300 248.629 M287.600 248.127 C 287.600 248.224,288.635 249.081,289.900 250.030 C 291.165 250.979,291.983 251.487,291.718 251.159 C 291.175 250.485,287.600 247.854,287.600 248.127 M107.800 251.044 L 106.200 252.476 107.900 251.204 C 109.363 250.110,109.891 249.583,109.500 249.606 C 109.445 249.609,108.680 250.256,107.800 251.044 M236.100 250.446 C 234.737 251.319,234.295 251.906,235.500 251.243 C 236.418 250.739,237.856 249.627,237.600 249.619 C 237.490 249.616,236.815 249.988,236.100 250.446 M160.600 250.610 C 161.815 251.595,162.955 252.174,162.623 251.637 C 162.472 251.394,161.776 250.917,161.075 250.578 C 159.891 250.006,159.857 250.008,160.600 250.610 M186.800 250.600 C 187.350 250.914,187.980 251.172,188.200 251.172 C 188.420 251.172,188.150 250.914,187.600 250.600 C 187.050 250.286,186.420 250.028,186.200 250.028 C 185.980 250.028,186.250 250.286,186.800 250.600 M210.000 250.800 C 209.230 251.222,208.780 251.566,209.000 251.566 C 209.220 251.566,210.030 251.222,210.800 250.800 C 211.570 250.378,212.020 250.034,211.800 250.034 C 211.580 250.034,210.770 250.378,210.000 250.800 M232.500 252.626 C 230.612 253.758,230.177 254.349,231.900 253.441 C 233.109 252.803,234.716 251.631,234.400 251.617 C 234.290 251.612,233.435 252.066,232.500 252.626 M292.400 251.728 C 292.400 251.830,293.930 253.202,295.800 254.777 C 297.670 256.352,299.191 257.496,299.181 257.320 C 299.164 257.038,297.933 255.976,293.559 252.471 C 292.922 251.960,292.400 251.626,292.400 251.728 M71.108 252.900 C 70.787 253.395,70.307 254.250,70.040 254.800 C 69.360 256.203,70.594 254.706,71.441 253.100 C 72.139 251.774,71.923 251.644,71.108 252.900 M191.800 252.555 C 192.460 252.855,193.450 253.211,194.000 253.346 C 194.803 253.543,194.764 253.484,193.800 253.045 C 193.140 252.745,192.150 252.389,191.600 252.254 C 190.797 252.057,190.836 252.116,191.800 252.555 M204.600 253.014 C 203.600 253.496,203.566 253.551,204.400 253.348 C 205.533 253.071,206.807 252.421,206.200 252.430 C 205.980 252.433,205.260 252.696,204.600 253.014 M166.000 253.752 C 166.000 254.053,168.895 255.638,169.089 255.444 C 169.193 255.341,168.540 254.880,167.639 254.420 C 166.737 253.960,166.000 253.660,166.000 253.752 M198.300 254.282 C 198.795 254.378,199.605 254.378,200.100 254.282 C 200.595 254.187,200.190 254.109,199.200 254.109 C 198.210 254.109,197.805 254.187,198.300 254.282 M229.100 254.629 C 227.605 255.440,227.696 255.778,229.200 255.000 C 229.860 254.659,230.400 254.294,230.400 254.190 C 230.400 253.932,230.357 253.947,229.100 254.629 M98.200 259.136 C 91.991 264.792,86.786 270.449,81.396 277.400 C 78.857 280.675,80.823 278.544,85.086 273.400 C 89.508 268.065,95.248 262.092,100.400 257.466 C 102.270 255.787,103.710 254.410,103.600 254.406 C 103.490 254.403,101.060 256.531,98.200 259.136 M169.600 255.787 C 169.600 255.897,170.500 256.443,171.600 257.000 C 172.700 257.557,173.600 257.923,173.600 257.813 C 173.600 257.703,172.700 257.157,171.600 256.600 C 170.500 256.043,169.600 255.677,169.600 255.787 M225.862 256.447 C 225.016 256.893,224.409 257.342,224.512 257.445 C 224.702 257.636,227.600 256.055,227.600 255.760 C 227.600 255.534,227.571 255.545,225.862 256.447 M332.362 256.329 C 332.605 256.784,333.001 257.277,333.242 257.426 C 333.556 257.620,333.554 257.462,333.238 256.871 C 332.995 256.416,332.599 255.923,332.358 255.774 C 332.044 255.580,332.046 255.738,332.362 256.329 M222.300 258.427 C 221.475 258.863,220.800 259.308,220.800 259.418 C 220.800 259.527,221.520 259.249,222.400 258.800 C 223.280 258.351,224.000 257.897,224.000 257.792 C 224.000 257.530,223.997 257.531,222.300 258.427 M305.784 264.000 C 313.442 271.955,314.493 273.001,312.616 270.800 C 310.664 268.512,306.055 263.753,302.541 260.400 C 301.042 258.970,302.502 260.590,305.784 264.000 M334.585 259.500 C 335.202 260.435,335.783 261.200,335.876 261.200 C 336.164 261.200,334.633 258.766,334.032 258.269 C 333.720 258.011,333.968 258.565,334.585 259.500 M175.376 259.020 C 176.236 259.662,176.968 259.796,176.630 259.248 C 176.510 259.055,176.005 258.794,175.506 258.668 C 174.632 258.448,174.627 258.460,175.376 259.020 M178.000 260.211 C 178.000 260.405,180.239 261.600,180.604 261.600 C 180.738 261.600,180.747 261.438,180.624 261.239 C 180.389 260.858,178.000 259.922,178.000 260.211 M183.600 262.969 C 184.714 263.641,185.591 263.816,184.980 263.245 C 184.771 263.050,184.150 262.772,183.600 262.628 L 182.600 262.367 183.600 262.969 M212.800 263.200 C 212.030 263.622,211.580 263.966,211.800 263.966 C 212.020 263.966,212.830 263.622,213.600 263.200 C 214.370 262.778,214.820 262.434,214.600 262.434 C 214.380 262.434,213.570 262.778,212.800 263.200 M209.000 264.829 C 208.120 265.252,207.850 265.486,208.400 265.349 C 209.533 265.067,211.612 264.025,211.000 264.046 C 210.780 264.053,209.880 264.406,209.000 264.829 M188.000 264.733 C 188.330 264.936,189.050 265.224,189.600 265.371 C 190.295 265.557,190.417 265.525,190.000 265.267 C 189.670 265.064,188.950 264.776,188.400 264.629 C 187.705 264.443,187.583 264.475,188.000 264.733 M340.416 267.763 C 341.168 268.809,341.956 269.773,342.167 269.903 C 342.378 270.033,341.935 269.284,341.184 268.237 C 340.432 267.191,339.644 266.227,339.433 266.097 C 339.222 265.967,339.665 266.716,340.416 267.763 M195.000 266.993 C 195.880 267.293,197.770 267.539,199.200 267.539 C 200.630 267.539,202.520 267.293,203.400 266.993 L 205.000 266.448 203.400 266.724 C 202.520 266.876,200.630 267.000,199.200 267.000 C 197.770 267.000,195.880 266.876,195.000 266.724 L 193.400 266.448 195.000 266.993 M61.353 268.900 C 59.976 271.236,59.886 271.435,60.587 270.600 C 61.400 269.632,62.100 268.400,61.838 268.400 C 61.733 268.400,61.515 268.625,61.353 268.900 M345.256 274.218 C 345.974 275.218,346.830 276.253,347.159 276.518 C 347.487 276.783,346.979 275.965,346.030 274.700 C 343.987 271.978,343.372 271.595,345.256 274.218 M56.800 275.600 C 56.330 276.260,56.036 276.800,56.146 276.800 C 56.256 276.800,56.730 276.260,57.200 275.600 C 57.670 274.940,57.964 274.400,57.854 274.400 C 57.744 274.400,57.270 274.940,56.800 275.600 M318.575 278.532 C 319.191 279.339,319.776 280.000,319.875 280.000 C 320.153 280.000,318.421 277.660,317.909 277.344 C 317.659 277.189,317.959 277.724,318.575 278.532 M348.800 278.800 C 349.497 279.680,350.157 280.400,350.267 280.400 C 350.377 280.400,349.897 279.680,349.200 278.800 C 348.503 277.920,347.843 277.200,347.733 277.200 C 347.623 277.200,348.103 277.920,348.800 278.800 M79.123 280.300 C 78.360 281.189,77.895 282.000,78.149 282.000 C 78.257 282.000,78.730 281.460,79.200 280.800 C 80.132 279.491,80.084 279.181,79.123 280.300 M52.575 281.468 C 51.959 282.276,51.659 282.811,51.909 282.656 C 52.421 282.340,54.153 280.000,53.875 280.000 C 53.776 280.000,53.191 280.661,52.575 281.468 M321.373 282.418 C 323.631 285.574,324.435 286.256,322.388 283.278 C 321.434 281.892,320.464 280.640,320.233 280.497 C 320.001 280.354,320.514 281.218,321.373 282.418 M76.800 283.600 C 76.330 284.260,76.036 284.800,76.146 284.800 C 76.256 284.800,76.730 284.260,77.200 283.600 C 77.670 282.940,77.964 282.400,77.854 282.400 C 77.744 282.400,77.270 282.940,76.800 283.600 M352.477 283.500 C 352.808 283.885,354.758 286.270,356.811 288.800 C 361.520 294.602,369.205 303.600,369.453 303.600 C 369.556 303.600,367.991 301.665,365.976 299.300 C 363.961 296.935,360.062 292.255,357.311 288.900 C 354.561 285.545,352.212 282.800,352.093 282.800 C 351.974 282.800,352.147 283.115,352.477 283.500 M50.400 284.400 C 49.930 285.060,49.636 285.600,49.746 285.600 C 49.856 285.600,50.330 285.060,50.800 284.400 C 51.270 283.740,51.564 283.200,51.454 283.200 C 51.344 283.200,50.870 283.740,50.400 284.400 M324.362 286.729 C 324.605 287.184,325.001 287.677,325.242 287.826 C 325.556 288.020,325.554 287.862,325.238 287.271 C 324.995 286.816,324.599 286.323,324.358 286.174 C 324.044 285.980,324.046 286.138,324.362 286.729 M325.949 289.000 C 326.165 289.440,326.634 290.160,326.993 290.600 L 327.644 291.400 327.251 290.600 C 327.035 290.160,326.566 289.440,326.207 289.000 L 325.556 288.200 325.949 289.000 M72.953 289.300 C 71.576 291.636,71.486 291.835,72.187 291.000 C 73.000 290.032,73.700 288.800,73.438 288.800 C 73.333 288.800,73.115 289.025,72.953 289.300 M44.783 291.700 C 44.040 292.635,43.748 293.146,44.135 292.836 C 44.863 292.251,46.577 290.000,46.294 290.000 C 46.206 290.000,45.526 290.765,44.783 291.700 M328.788 293.829 C 330.139 296.087,330.631 296.485,329.650 294.527 C 329.189 293.607,328.594 292.720,328.329 292.556 C 328.064 292.392,328.270 292.965,328.788 293.829 M69.223 295.450 C 68.753 296.248,68.452 296.986,68.556 297.089 C 68.659 297.193,69.120 296.540,69.580 295.639 C 70.615 293.611,70.381 293.488,69.223 295.450 M331.800 299.200 C 333.069 301.720,334.021 303.069,333.282 301.300 C 332.677 299.853,330.779 296.400,330.588 296.400 C 330.479 296.400,331.024 297.660,331.800 299.200 M66.800 300.000 C 66.351 300.880,66.074 301.600,66.184 301.600 C 66.294 301.600,66.751 300.880,67.200 300.000 C 67.649 299.120,67.926 298.400,67.816 298.400 C 67.706 298.400,67.249 299.120,66.800 300.000 M33.600 305.200 C 32.456 306.520,31.611 307.600,31.721 307.600 C 31.831 307.600,32.856 306.520,34.000 305.200 C 35.144 303.880,35.989 302.800,35.879 302.800 C 35.769 302.800,34.744 303.880,33.600 305.200 M64.672 304.219 C 63.732 306.189,63.864 306.524,64.847 304.662 C 65.293 303.816,65.587 303.054,65.501 302.967 C 65.414 302.881,65.041 303.444,64.672 304.219 M334.018 303.500 C 334.045 303.944,335.961 307.452,335.982 307.096 C 336.005 306.705,334.362 303.200,334.156 303.200 C 334.070 303.200,334.008 303.335,334.018 303.500 M372.404 307.204 C 373.771 308.746,375.094 310.132,375.345 310.284 C 375.595 310.436,374.563 309.174,373.051 307.480 C 371.539 305.786,370.215 304.400,370.110 304.400 C 370.004 304.400,371.036 305.662,372.404 307.204 M62.744 308.233 C 62.298 309.242,62.012 310.146,62.109 310.243 C 62.206 310.340,62.661 309.515,63.121 308.409 C 64.165 305.895,63.845 305.745,62.744 308.233 M336.607 309.079 C 337.235 310.581,337.600 311.160,337.600 310.654 C 337.600 310.146,336.445 307.600,336.215 307.600 C 336.091 307.600,336.267 308.266,336.607 309.079 M29.781 309.700 L 28.200 311.400 29.900 309.819 C 30.835 308.949,31.600 308.184,31.600 308.119 C 31.600 307.816,31.252 308.119,29.781 309.700 M376.800 312.200 C 377.546 312.970,378.247 313.600,378.357 313.600 C 378.467 313.600,377.946 312.970,377.200 312.200 C 376.454 311.430,375.753 310.800,375.643 310.800 C 375.533 310.800,376.054 311.430,376.800 312.200 M60.850 312.650 C 60.586 313.229,60.462 313.795,60.574 313.907 C 60.686 314.019,60.968 313.611,61.200 313.000 C 61.749 311.557,61.473 311.282,60.850 312.650 M24.760 315.300 C 23.136 317.115,22.124 318.350,22.512 318.044 C 23.375 317.363,28.155 312.000,27.898 312.000 C 27.797 312.000,26.385 313.485,24.760 315.300 M338.235 312.800 C 338.381 313.350,338.754 314.250,339.064 314.800 L 339.629 315.800 339.365 314.800 C 339.219 314.250,338.846 313.350,338.536 312.800 L 337.971 311.800 338.235 312.800 M378.800 314.242 C 378.800 314.462,379.475 315.263,380.299 316.022 L 381.798 317.400 380.602 316.000 C 379.944 315.230,379.270 314.429,379.103 314.220 C 378.915 313.984,378.800 313.992,378.800 314.242 M59.015 317.415 C 58.630 318.424,58.404 319.337,58.513 319.446 C 58.621 319.555,59.000 318.793,59.354 317.754 C 60.190 315.299,59.925 315.034,59.015 317.415 M340.232 318.000 C 340.616 319.452,341.176 320.403,341.174 319.600 C 341.173 319.270,340.901 318.550,340.569 318.000 L 339.967 317.000 340.232 318.000 M384.350 320.743 C 385.466 322.031,386.699 323.336,387.090 323.643 C 387.480 323.949,386.656 322.895,385.259 321.300 C 383.861 319.705,382.628 318.400,382.519 318.400 C 382.410 318.400,383.234 319.454,384.350 320.743 M20.378 320.300 L 19.000 321.800 20.500 320.422 C 21.325 319.663,22.000 318.988,22.000 318.922 C 22.000 318.616,21.662 318.904,20.378 320.300 M16.720 324.500 C 14.090 327.560,11.065 331.488,12.659 329.772 C 14.299 328.007,19.223 322.000,19.030 322.000 C 18.941 322.000,17.901 323.125,16.720 324.500 M56.800 323.800 C 56.536 324.599,56.415 325.348,56.531 325.464 C 56.647 325.580,56.930 324.993,57.160 324.160 C 57.703 322.192,57.423 321.912,56.800 323.800 M342.443 324.400 C 342.453 324.730,342.716 325.630,343.027 326.400 L 343.593 327.800 343.351 326.400 C 343.076 324.813,342.411 323.348,342.443 324.400 M390.635 328.100 C 392.329 330.245,393.790 332.000,393.881 332.000 C 394.124 332.000,390.721 327.659,389.020 325.800 C 388.214 324.920,388.941 325.955,390.635 328.100 M54.833 330.633 C 54.575 331.659,54.439 332.572,54.531 332.664 C 54.622 332.756,54.909 331.992,55.167 330.967 C 55.425 329.941,55.561 329.028,55.469 328.936 C 55.378 328.844,55.091 329.608,54.833 330.633 M344.456 331.400 C 344.456 331.840,344.611 332.560,344.800 333.000 L 345.144 333.800 345.144 333.000 C 345.144 332.560,344.989 331.840,344.800 331.400 L 344.456 330.600 344.456 331.400 M10.744 331.900 C 9.593 333.289,9.106 334.000,9.304 334.000 C 9.414 334.000,9.986 333.370,10.573 332.600 C 11.663 331.171,11.795 330.632,10.744 331.900 M396.391 335.588 C 396.857 336.241,397.442 336.902,397.691 337.056 C 397.941 337.211,397.641 336.676,397.025 335.868 C 395.688 334.115,395.184 333.892,396.391 335.588 M6.123 338.100 C 4.247 340.603,3.556 341.737,4.477 340.800 C 5.296 339.966,8.110 336.000,7.882 336.000 C 7.780 336.000,6.988 336.945,6.123 338.100 M52.805 338.977 C 52.549 340.210,52.412 341.435,52.500 341.700 C 52.588 341.964,52.884 341.043,53.158 339.652 C 53.432 338.260,53.569 337.035,53.463 336.929 C 53.357 336.823,53.061 337.745,52.805 338.977 M398.800 338.800 C 399.270 339.460,399.744 340.000,399.854 340.000 C 399.964 340.000,399.670 339.460,399.200 338.800 C 398.730 338.140,398.256 337.600,398.146 337.600 C 398.036 337.600,398.330 338.140,398.800 338.800 M346.487 340.000 C 346.491 340.550,346.632 341.540,346.800 342.200 L 347.105 343.400 347.113 342.200 C 347.117 341.540,346.976 340.550,346.800 340.000 L 346.480 339.000 346.487 340.000 M2.800 342.800 C 2.330 343.460,2.036 344.000,2.146 344.000 C 2.256 344.000,2.730 343.460,3.200 342.800 C 3.670 342.140,3.964 341.600,3.854 341.600 C 3.744 341.600,3.270 342.140,2.800 342.800 M1.353 344.900 C -0.024 347.236,-0.114 347.435,0.587 346.600 C 1.400 345.632,2.100 344.400,1.838 344.400 C 1.733 344.400,1.515 344.625,1.353 344.900 M51.099 349.000 C 50.955 349.880,50.747 352.040,50.638 353.800 C 50.444 356.912,50.454 356.884,51.019 352.800 C 51.576 348.771,51.641 345.694,51.099 349.000 M348.678 355.800 C 348.797 358.220,348.964 360.275,349.047 360.367 C 349.325 360.670,349.136 355.436,348.796 353.400 C 348.567 352.028,348.530 352.782,348.678 355.800 M50.128 361.200 C 50.128 362.630,50.201 363.215,50.289 362.500 C 50.378 361.785,50.378 360.615,50.289 359.900 C 50.201 359.185,50.128 359.770,50.128 361.200 M349.369 368.800 C 349.369 373.310,349.427 375.155,349.498 372.900 C 349.570 370.645,349.570 366.955,349.498 364.700 C 349.427 362.445,349.369 364.290,349.369 368.800 M50.124 376.200 C 50.126 377.520,50.201 378.012,50.290 377.293 C 50.379 376.574,50.377 375.494,50.286 374.893 C 50.195 374.292,50.122 374.880,50.124 376.200 M348.662 381.337 C 348.486 383.723,348.427 385.761,348.532 385.866 C 348.802 386.135,349.306 379.651,349.128 378.200 C 349.048 377.540,348.838 378.952,348.662 381.337 M50.667 383.400 C 50.786 385.380,50.965 387.135,51.065 387.300 C 51.515 388.041,348.400 387.642,348.394 386.900 C 348.389 386.400,348.297 386.343,348.070 386.701 C 347.816 387.100,317.853 387.181,199.576 387.101 L 51.400 387.000 50.925 383.400 L 50.450 379.800 50.667 383.400 "
          stroke="none" fill="#8f763f" fill-rule="evenodd"></path>
    <path id="path4"
          d="M193.119 13.098 C 194.944 13.172,197.824 13.172,199.519 13.097 C 201.214 13.022,199.720 12.961,196.200 12.962 C 192.680 12.962,191.294 13.024,193.119 13.098 M184.711 13.493 C 185.651 13.578,187.091 13.577,187.911 13.491 C 188.730 13.405,187.960 13.336,186.200 13.337 C 184.440 13.339,183.770 13.409,184.711 13.493 M204.711 13.493 C 205.651 13.578,207.091 13.577,207.911 13.491 C 208.730 13.405,207.960 13.336,206.200 13.337 C 204.440 13.339,203.770 13.409,204.711 13.493 M169.280 15.195 C 168.554 15.367,167.847 15.620,167.709 15.758 C 167.444 16.023,169.519 15.673,171.200 15.169 C 172.589 14.752,171.060 14.773,169.280 15.195 M221.200 15.200 C 221.750 15.376,222.650 15.517,223.200 15.513 C 224.098 15.506,224.078 15.474,223.000 15.200 C 221.308 14.769,219.856 14.769,221.200 15.200 M230.000 16.911 C 230.110 17.024,230.905 17.309,231.766 17.544 C 232.627 17.779,233.167 17.817,232.966 17.628 C 232.580 17.266,229.656 16.559,230.000 16.911 M153.800 19.414 C 152.800 19.896,152.766 19.951,153.600 19.748 C 154.733 19.471,156.007 18.821,155.400 18.830 C 155.180 18.833,154.460 19.096,153.800 19.414 M237.600 19.133 C 237.930 19.336,238.650 19.624,239.200 19.771 C 239.895 19.957,240.017 19.925,239.600 19.667 C 239.270 19.464,238.550 19.176,238.000 19.029 C 237.305 18.843,237.183 18.875,237.600 19.133 M266.200 34.257 C 268.237 36.064,268.987 36.591,268.202 35.663 C 267.766 35.148,267.047 34.541,266.604 34.314 C 266.162 34.087,265.980 34.062,266.200 34.257 M272.800 40.200 C 273.995 41.410,275.063 42.400,275.173 42.400 C 275.283 42.400,274.395 41.410,273.200 40.200 C 272.005 38.990,270.937 38.000,270.827 38.000 C 270.717 38.000,271.605 38.990,272.800 40.200 M280.400 49.200 C 280.870 49.860,281.344 50.400,281.454 50.400 C 281.564 50.400,281.270 49.860,280.800 49.200 C 280.330 48.540,279.856 48.000,279.746 48.000 C 279.636 48.000,279.930 48.540,280.400 49.200 M290.028 66.200 C 290.028 66.420,290.286 67.050,290.600 67.600 C 290.914 68.150,291.172 68.420,291.172 68.200 C 291.172 67.980,290.914 67.350,290.600 66.800 C 290.286 66.250,290.028 65.980,290.028 66.200 M292.028 71.400 C 292.028 71.620,292.286 72.250,292.600 72.800 C 292.914 73.350,293.172 73.620,293.172 73.400 C 293.172 73.180,292.914 72.550,292.600 72.000 C 292.286 71.450,292.028 71.180,292.028 71.400 M99.244 75.644 C 98.998 76.351,98.866 77.000,98.952 77.085 C 99.038 77.171,99.309 76.662,99.556 75.956 C 99.802 75.249,99.934 74.600,99.848 74.515 C 99.762 74.429,99.491 74.938,99.244 75.644 M296.262 86.200 C 296.396 87.080,296.572 87.875,296.653 87.967 C 296.956 88.310,296.729 86.168,296.381 85.400 C 296.129 84.842,296.093 85.085,296.262 86.200 M95.449 90.215 C 95.312 90.573,95.218 91.256,95.241 91.733 C 95.267 92.281,95.403 92.086,95.610 91.203 C 95.960 89.716,95.865 89.133,95.449 90.215 M298.281 98.800 C 298.404 100.450,298.571 101.875,298.652 101.967 C 298.931 102.281,298.754 99.001,298.406 97.400 C 298.148 96.214,298.116 96.576,298.281 98.800 M298.909 104.000 C 298.909 104.990,298.987 105.395,299.082 104.900 C 299.178 104.405,299.178 103.595,299.082 103.100 C 298.987 102.605,298.909 103.010,298.909 104.000 M93.324 106.200 C 93.326 107.520,93.401 108.012,93.490 107.293 C 93.579 106.574,93.577 105.494,93.486 104.893 C 93.395 104.292,93.322 104.880,93.324 106.200 M92.928 111.200 C 92.928 112.630,93.001 113.215,93.089 112.500 C 93.178 111.785,93.178 110.615,93.089 109.900 C 93.001 109.185,92.928 109.770,92.928 111.200 M299.350 114.200 C 299.351 116.620,299.416 117.558,299.496 116.285 C 299.576 115.012,299.575 113.032,299.494 111.885 C 299.414 110.738,299.349 111.780,299.350 114.200 M92.540 120.800 C 92.540 122.670,92.609 123.435,92.693 122.500 C 92.777 121.565,92.777 120.035,92.693 119.100 C 92.609 118.165,92.540 118.930,92.540 120.800 M299.731 152.600 C 299.733 154.140,299.805 154.721,299.892 153.891 C 299.979 153.061,299.977 151.801,299.889 151.091 C 299.800 150.381,299.729 151.060,299.731 152.600 M300.114 161.000 C 300.117 162.100,300.195 162.503,300.287 161.895 C 300.379 161.286,300.377 160.386,300.282 159.895 C 300.187 159.403,300.111 159.900,300.114 161.000 M300.534 166.000 C 300.534 167.650,300.605 168.325,300.691 167.500 C 300.778 166.675,300.778 165.325,300.691 164.500 C 300.605 163.675,300.534 164.350,300.534 166.000 M92.120 165.600 C 92.120 166.810,92.195 167.305,92.287 166.700 C 92.378 166.095,92.378 165.105,92.287 164.500 C 92.195 163.895,92.120 164.390,92.120 165.600 M186.882 167.096 C 188.358 167.173,190.878 167.173,192.482 167.097 C 194.087 167.021,192.880 166.958,189.800 166.958 C 186.720 166.957,185.407 167.019,186.882 167.096 M210.100 167.097 C 211.585 167.174,214.015 167.174,215.500 167.097 C 216.985 167.020,215.770 166.957,212.800 166.957 C 209.830 166.957,208.615 167.020,210.100 167.097 M176.700 167.482 C 177.195 167.578,178.005 167.578,178.500 167.482 C 178.995 167.387,178.590 167.309,177.600 167.309 C 176.610 167.309,176.205 167.387,176.700 167.482 M224.305 167.483 C 224.802 167.579,225.522 167.575,225.905 167.475 C 226.287 167.375,225.880 167.296,225.000 167.301 C 224.120 167.305,223.807 167.387,224.305 167.483 M163.900 168.282 C 164.395 168.378,165.205 168.378,165.700 168.282 C 166.195 168.187,165.790 168.109,164.800 168.109 C 163.810 168.109,163.405 168.187,163.900 168.282 M236.700 168.282 C 237.195 168.378,238.005 168.378,238.500 168.282 C 238.995 168.187,238.590 168.109,237.600 168.109 C 236.610 168.109,236.205 168.187,236.700 168.282 M160.105 168.687 C 160.714 168.779,161.614 168.777,162.105 168.682 C 162.597 168.587,162.100 168.511,161.000 168.514 C 159.900 168.517,159.497 168.595,160.105 168.687 M240.505 168.687 C 241.114 168.779,242.014 168.777,242.505 168.682 C 242.997 168.587,242.500 168.511,241.400 168.514 C 240.300 168.517,239.897 168.595,240.505 168.687 M156.500 169.076 C 156.885 169.176,157.515 169.176,157.900 169.076 C 158.285 168.975,157.970 168.893,157.200 168.893 C 156.430 168.893,156.115 168.975,156.500 169.076 M144.100 170.676 C 144.485 170.776,145.115 170.776,145.500 170.676 C 145.885 170.575,145.570 170.493,144.800 170.493 C 144.030 170.493,143.715 170.575,144.100 170.676 M134.400 172.400 C 133.596 172.657,133.557 172.723,134.200 172.732 C 134.640 172.738,135.360 172.589,135.800 172.400 C 136.819 171.962,135.768 171.962,134.400 172.400 M265.800 172.346 C 266.240 172.539,267.230 172.810,268.000 172.950 C 268.961 173.124,269.149 173.094,268.600 172.854 C 268.160 172.661,267.170 172.390,266.400 172.250 C 265.439 172.076,265.251 172.106,265.800 172.346 M273.200 174.333 C 273.530 174.536,274.250 174.824,274.800 174.971 C 275.495 175.157,275.617 175.125,275.200 174.867 C 274.870 174.664,274.150 174.376,273.600 174.229 C 272.905 174.043,272.783 174.075,273.200 174.333 M121.200 176.600 C 120.650 176.914,120.380 177.172,120.600 177.172 C 120.820 177.172,121.450 176.914,122.000 176.600 C 122.550 176.286,122.820 176.028,122.600 176.028 C 122.380 176.028,121.750 176.286,121.200 176.600 M282.800 179.400 C 283.546 180.170,284.247 180.800,284.357 180.800 C 284.467 180.800,283.946 180.170,283.200 179.400 C 282.454 178.630,281.753 178.000,281.643 178.000 C 281.533 178.000,282.054 178.630,282.800 179.400 M91.337 183.000 C 91.339 184.760,91.409 185.430,91.493 184.489 C 91.578 183.549,91.577 182.109,91.491 181.289 C 91.405 180.470,91.336 181.240,91.337 183.000 M284.893 183.600 C 284.893 184.370,284.975 184.685,285.076 184.300 C 285.176 183.915,285.176 183.285,285.076 182.900 C 284.975 182.515,284.893 182.830,284.893 183.600 M302.493 184.000 C 302.493 184.770,302.575 185.085,302.676 184.700 C 302.776 184.315,302.776 183.685,302.676 183.300 C 302.575 182.915,302.493 183.230,302.493 184.000 M90.893 187.600 C 90.893 188.370,90.975 188.685,91.076 188.300 C 91.176 187.915,91.176 187.285,91.076 186.900 C 90.975 186.515,90.893 186.830,90.893 187.600 M114.056 188.000 C 114.056 188.330,114.211 188.960,114.400 189.400 C 114.617 189.904,114.744 189.978,114.744 189.600 C 114.744 189.270,114.589 188.640,114.400 188.200 C 114.183 187.696,114.056 187.622,114.056 188.000 M283.265 189.817 C 282.595 191.288,282.723 191.602,283.447 190.265 C 283.786 189.640,283.988 189.054,283.896 188.963 C 283.805 188.871,283.521 189.256,283.265 189.817 M304.080 192.600 C 304.080 193.040,304.224 193.850,304.400 194.400 C 304.654 195.192,304.720 195.233,304.720 194.600 C 304.720 194.160,304.576 193.350,304.400 192.800 C 304.146 192.008,304.080 191.967,304.080 192.600 M281.053 194.100 L 280.333 195.400 281.158 194.400 C 281.889 193.513,282.214 192.800,281.886 192.800 C 281.824 192.800,281.449 193.385,281.053 194.100 M279.200 196.800 C 278.730 197.460,278.436 198.000,278.546 198.000 C 278.656 198.000,279.130 197.460,279.600 196.800 C 280.070 196.140,280.364 195.600,280.254 195.600 C 280.144 195.600,279.670 196.140,279.200 196.800 M89.452 199.871 C 88.930 202.495,88.708 204.187,88.910 204.000 C 89.200 203.732,90.041 199.108,89.837 198.904 C 89.749 198.815,89.575 199.251,89.452 199.871 M122.714 203.000 C 122.941 203.440,123.638 204.249,124.263 204.799 L 125.400 205.797 124.203 204.399 C 122.307 202.182,122.280 202.158,122.714 203.000 M272.975 204.500 L 271.800 205.800 273.100 204.625 C 273.815 203.979,274.400 203.394,274.400 203.325 C 274.400 203.016,274.070 203.288,272.975 204.500 M128.600 209.600 C 130.128 211.140,131.469 212.400,131.579 212.400 C 131.689 212.400,130.528 211.140,129.000 209.600 C 127.472 208.060,126.131 206.800,126.021 206.800 C 125.911 206.800,127.072 208.060,128.600 209.600 M87.200 211.200 C 86.951 212.124,86.826 212.959,86.921 213.055 C 87.017 213.150,87.290 212.463,87.527 211.527 C 87.765 210.591,87.890 209.757,87.806 209.673 C 87.722 209.588,87.449 210.276,87.200 211.200 M264.175 213.300 L 263.000 214.600 264.300 213.425 C 265.015 212.779,265.600 212.194,265.600 212.125 C 265.600 211.816,265.270 212.088,264.175 213.300 M134.000 214.525 C 134.000 214.594,134.585 215.179,135.300 215.825 L 136.600 217.000 135.425 215.700 C 134.330 214.488,134.000 214.216,134.000 214.525 M260.581 216.500 L 259.000 218.200 260.700 216.619 C 262.281 215.148,262.584 214.800,262.281 214.800 C 262.216 214.800,261.451 215.565,260.581 216.500 M85.479 217.900 C 85.169 218.453,84.732 220.602,84.980 220.354 C 85.277 220.056,86.005 217.600,85.796 217.600 C 85.714 217.600,85.571 217.735,85.479 217.900 M314.028 223.000 C 314.028 223.220,314.286 223.850,314.600 224.400 C 314.914 224.950,315.172 225.220,315.172 225.000 C 315.172 224.780,314.914 224.150,314.600 223.600 C 314.286 223.050,314.028 222.780,314.028 223.000 M81.179 230.655 C 80.958 231.236,80.852 231.785,80.943 231.876 C 81.033 231.967,81.299 231.492,81.533 230.820 C 82.053 229.328,81.739 229.182,81.179 230.655 M154.000 230.511 C 154.000 230.587,154.585 231.078,155.300 231.601 C 156.104 232.190,156.384 232.287,156.033 231.855 C 155.500 231.199,154.000 230.207,154.000 230.511 M318.200 232.000 C 318.541 232.660,318.911 233.200,319.021 233.200 C 319.131 233.200,318.941 232.660,318.600 232.000 C 318.259 231.340,317.889 230.800,317.779 230.800 C 317.669 230.800,317.859 231.340,318.200 232.000 M220.100 245.246 C 218.737 246.119,218.295 246.706,219.500 246.043 C 220.418 245.539,221.856 244.427,221.600 244.419 C 221.490 244.416,220.815 244.788,220.100 245.246 M73.000 248.800 C 72.659 249.460,72.469 250.000,72.579 250.000 C 72.689 250.000,73.059 249.460,73.400 248.800 C 73.741 248.140,73.931 247.600,73.821 247.600 C 73.711 247.600,73.341 248.140,73.000 248.800 M208.000 251.400 C 207.450 251.714,207.180 251.972,207.400 251.972 C 207.620 251.972,208.250 251.714,208.800 251.400 C 209.350 251.086,209.620 250.828,209.400 250.828 C 209.180 250.828,208.550 251.086,208.000 251.400 M71.053 252.500 L 70.333 253.800 71.158 252.800 C 71.889 251.913,72.214 251.200,71.886 251.200 C 71.824 251.200,71.449 251.785,71.053 252.500 M194.400 253.141 C 194.730 253.334,195.540 253.609,196.200 253.752 C 196.968 253.918,197.184 253.884,196.800 253.659 C 196.470 253.466,195.660 253.191,195.000 253.048 C 194.232 252.882,194.016 252.916,194.400 253.141 M202.456 253.259 C 201.717 253.472,201.187 253.720,201.279 253.812 C 201.481 254.014,204.400 253.237,204.400 252.981 C 204.400 252.746,204.082 252.791,202.456 253.259 M66.153 260.900 C 64.776 263.236,64.686 263.435,65.387 262.600 C 66.200 261.632,66.900 260.400,66.638 260.400 C 66.533 260.400,66.315 260.625,66.153 260.900 M339.999 266.700 C 340.522 267.415,341.013 268.000,341.089 268.000 C 341.393 268.000,340.401 266.500,339.745 265.967 C 339.313 265.616,339.410 265.896,339.999 266.700 M54.800 278.000 C 54.330 278.660,54.036 279.200,54.146 279.200 C 54.256 279.200,54.730 278.660,55.200 278.000 C 55.670 277.340,55.964 276.800,55.854 276.800 C 55.744 276.800,55.270 277.340,54.800 278.000 M48.975 285.868 C 48.359 286.676,48.059 287.211,48.309 287.056 C 48.821 286.740,50.553 284.400,50.275 284.400 C 50.176 284.400,49.591 285.061,48.975 285.868 M45.544 290.300 C 44.393 291.689,43.906 292.400,44.104 292.400 C 44.214 292.400,44.786 291.770,45.373 291.000 C 46.463 289.571,46.595 289.032,45.544 290.300 M360.714 293.004 C 360.941 293.447,361.548 294.166,362.063 294.602 C 362.967 295.366,362.965 295.352,362.006 294.197 C 360.413 292.279,360.279 292.155,360.714 293.004 M372.714 307.000 C 372.941 307.440,373.638 308.249,374.263 308.799 L 375.400 309.797 374.203 308.399 C 372.307 306.182,372.280 306.158,372.714 307.000 M29.781 309.300 L 28.200 311.000 29.900 309.419 C 30.835 308.549,31.600 307.784,31.600 307.719 C 31.600 307.416,31.252 307.719,29.781 309.300 M377.022 312.025 C 377.890 313.029,378.681 313.788,378.780 313.712 C 378.880 313.635,378.170 312.814,377.203 311.886 L 375.444 310.200 377.022 312.025 M26.975 312.500 L 25.800 313.800 27.100 312.625 C 28.312 311.530,28.584 311.200,28.275 311.200 C 28.206 311.200,27.621 311.785,26.975 312.500 M23.578 316.300 L 22.200 317.800 23.700 316.422 C 24.525 315.663,25.200 314.988,25.200 314.922 C 25.200 314.616,24.862 314.904,23.578 316.300 M381.600 317.325 C 381.600 317.394,382.185 317.979,382.900 318.625 L 384.200 319.800 383.025 318.500 C 381.930 317.288,381.600 317.016,381.600 317.325 M20.378 319.900 L 19.000 321.400 20.500 320.022 C 21.896 318.738,22.184 318.400,21.878 318.400 C 21.812 318.400,21.137 319.075,20.378 319.900 M17.775 322.900 L 16.600 324.200 17.900 323.025 C 18.615 322.379,19.200 321.794,19.200 321.725 C 19.200 321.416,18.870 321.688,17.775 322.900 M7.123 336.300 C 6.418 337.121,5.890 338.000,6.101 338.000 C 6.183 338.000,6.649 337.460,7.137 336.800 C 8.101 335.496,8.092 335.172,7.123 336.300 "
          stroke="none" fill="#d9a124" fill-rule="evenodd"></path>
  </g>
</svg>
