<svg xmlns="http://www.w3.org/2000/svg" height="464pt" version="1.1" viewBox="0 0 464 464" width="464pt">
<g id="surface1">
<path d="M 0 64 L 464 64 L 464 0 L 0 0 Z M 440 32 Z M 96 32 Z M 64 32 Z M 32 32 Z M 32 32 " style=" stroke:none;fill-rule:nonzero;fill:rgb(34.117647%,64.313725%,100%);fill-opacity:1;" />
<path d="M 0 464 L 464 464 L 464 64 L 0 64 Z M 112 432 Z M 144 432 Z M 176 432 Z M 208 432 Z M 240 432 Z M 272 432 Z M 304 432 Z M 336 432 Z M 368 432 Z M 432 384 Z M 432 352 Z M 432 320 Z M 432 288 Z M 432 256 Z M 432 224 Z M 432 192 Z M 432 160 Z M 432 96 Z M 432 432 Z M 384 96 Z M 352 96 Z M 320 96 Z M 288 96 Z M 256 96 Z M 370.558594 384 L 93.441406 384 L 232 144 Z M 224 96 Z M 192 96 Z M 160 96 Z M 128 96 Z M 96 96 Z M 96 432 Z M 32 96 Z M 32 144 Z M 32 176 Z M 32 208 Z M 32 240 Z M 32 272 Z M 32 304 Z M 32 336 Z M 32 368 Z M 32 400 L 32 432 Z M 32 400 " style=" stroke:none;fill-rule:nonzero;fill:rgb(92.156863%,89.803922%,86.666667%);fill-opacity:1;" />
<path d="M 370.558594 384 L 232 144 L 93.441406 384 Z M 232 200 Z M 232 360 Z M 232 360 " style=" stroke:none;fill-rule:nonzero;fill:rgb(92.941176%,10.980392%,14.117647%);fill-opacity:1;" />
<path d="M 80 24 L 96 24 L 96 40 L 80 40 Z M 80 24 " style=" stroke:none;fill-rule:nonzero;fill:rgb(0%,42.745098%,94.117647%);fill-opacity:1;" />
<path d="M 48 24 L 64 24 L 64 40 L 48 40 Z M 48 24 " style=" stroke:none;fill-rule:nonzero;fill:rgb(0%,42.745098%,94.117647%);fill-opacity:1;" />
<path d="M 16 24 L 32 24 L 32 40 L 16 40 Z M 16 24 " style=" stroke:none;fill-rule:nonzero;fill:rgb(0%,42.745098%,94.117647%);fill-opacity:1;" />
<path d="M 224 200 L 240 200 L 240 328 L 224 328 Z M 224 200 " style=" stroke:none;fill-rule:nonzero;fill:rgb(94.509804%,94.901961%,94.901961%);fill-opacity:1;" />
<path d="M 224 344 L 240 344 L 240 360 L 224 360 Z M 224 344 " style=" stroke:none;fill-rule:nonzero;fill:rgb(94.509804%,94.901961%,94.901961%);fill-opacity:1;" />
<path d="M 112 88 L 128 88 L 128 104 L 112 104 Z M 112 88 " style=" stroke:none;fill-rule:nonzero;fill:rgb(0%,42.745098%,94.117647%);fill-opacity:1;" />
<path d="M 144 88 L 160 88 L 160 104 L 144 104 Z M 144 88 " style=" stroke:none;fill-rule:nonzero;fill:rgb(0%,42.745098%,94.117647%);fill-opacity:1;" />
<path d="M 176 88 L 192 88 L 192 104 L 176 104 Z M 176 88 " style=" stroke:none;fill-rule:nonzero;fill:rgb(0%,42.745098%,94.117647%);fill-opacity:1;" />
<path d="M 208 88 L 224 88 L 224 104 L 208 104 Z M 208 88 " style=" stroke:none;fill-rule:nonzero;fill:rgb(0%,42.745098%,94.117647%);fill-opacity:1;" />
<path d="M 240 88 L 256 88 L 256 104 L 240 104 Z M 240 88 " style=" stroke:none;fill-rule:nonzero;fill:rgb(0%,42.745098%,94.117647%);fill-opacity:1;" />
<path d="M 272 88 L 288 88 L 288 104 L 272 104 Z M 272 88 " style=" stroke:none;fill-rule:nonzero;fill:rgb(0%,42.745098%,94.117647%);fill-opacity:1;" />
<path d="M 304 88 L 320 88 L 320 104 L 304 104 Z M 304 88 " style=" stroke:none;fill-rule:nonzero;fill:rgb(0%,42.745098%,94.117647%);fill-opacity:1;" />
<path d="M 336 88 L 352 88 L 352 104 L 336 104 Z M 336 88 " style=" stroke:none;fill-rule:nonzero;fill:rgb(0%,42.745098%,94.117647%);fill-opacity:1;" />
<path d="M 368 88 L 384 88 L 384 104 L 368 104 Z M 368 88 " style=" stroke:none;fill-rule:nonzero;fill:rgb(0%,42.745098%,94.117647%);fill-opacity:1;" />
<path d="M 80 88 L 96 88 L 96 104 L 80 104 Z M 80 88 " style=" stroke:none;fill-rule:nonzero;fill:rgb(0%,42.745098%,94.117647%);fill-opacity:1;" />
<path d="M 40 128 L 24 128 L 24 88 L 64 88 L 64 104 L 40 104 Z M 40 128 " style=" stroke:none;fill-rule:nonzero;fill:rgb(0%,42.745098%,94.117647%);fill-opacity:1;" />
<path d="M 440 128 L 424 128 L 424 104 L 400 104 L 400 88 L 440 88 Z M 440 128 " style=" stroke:none;fill-rule:nonzero;fill:rgb(0%,42.745098%,94.117647%);fill-opacity:1;" />
<path d="M 112 424 L 128 424 L 128 440 L 112 440 Z M 112 424 " style=" stroke:none;fill-rule:nonzero;fill:rgb(0%,42.745098%,94.117647%);fill-opacity:1;" />
<path d="M 144 424 L 160 424 L 160 440 L 144 440 Z M 144 424 " style=" stroke:none;fill-rule:nonzero;fill:rgb(0%,42.745098%,94.117647%);fill-opacity:1;" />
<path d="M 176 424 L 192 424 L 192 440 L 176 440 Z M 176 424 " style=" stroke:none;fill-rule:nonzero;fill:rgb(0%,42.745098%,94.117647%);fill-opacity:1;" />
<path d="M 208 424 L 224 424 L 224 440 L 208 440 Z M 208 424 " style=" stroke:none;fill-rule:nonzero;fill:rgb(0%,42.745098%,94.117647%);fill-opacity:1;" />
<path d="M 240 424 L 256 424 L 256 440 L 240 440 Z M 240 424 " style=" stroke:none;fill-rule:nonzero;fill:rgb(0%,42.745098%,94.117647%);fill-opacity:1;" />
<path d="M 272 424 L 288 424 L 288 440 L 272 440 Z M 272 424 " style=" stroke:none;fill-rule:nonzero;fill:rgb(0%,42.745098%,94.117647%);fill-opacity:1;" />
<path d="M 304 424 L 320 424 L 320 440 L 304 440 Z M 304 424 " style=" stroke:none;fill-rule:nonzero;fill:rgb(0%,42.745098%,94.117647%);fill-opacity:1;" />
<path d="M 336 424 L 352 424 L 352 440 L 336 440 Z M 336 424 " style=" stroke:none;fill-rule:nonzero;fill:rgb(0%,42.745098%,94.117647%);fill-opacity:1;" />
<path d="M 368 424 L 384 424 L 384 440 L 368 440 Z M 368 424 " style=" stroke:none;fill-rule:nonzero;fill:rgb(0%,42.745098%,94.117647%);fill-opacity:1;" />
<path d="M 80 424 L 96 424 L 96 440 L 80 440 Z M 80 424 " style=" stroke:none;fill-rule:nonzero;fill:rgb(0%,42.745098%,94.117647%);fill-opacity:1;" />
<path d="M 64 440 L 24 440 L 24 400 L 40 400 L 40 424 L 64 424 Z M 64 440 " style=" stroke:none;fill-rule:nonzero;fill:rgb(0%,42.745098%,94.117647%);fill-opacity:1;" />
<path d="M 440 440 L 400 440 L 400 424 L 424 424 L 424 400 L 440 400 Z M 440 440 " style=" stroke:none;fill-rule:nonzero;fill:rgb(0%,42.745098%,94.117647%);fill-opacity:1;" />
<path d="M 24 144 L 40 144 L 40 160 L 24 160 Z M 24 144 " style=" stroke:none;fill-rule:nonzero;fill:rgb(0%,42.745098%,94.117647%);fill-opacity:1;" />
<path d="M 24 176 L 40 176 L 40 192 L 24 192 Z M 24 176 " style=" stroke:none;fill-rule:nonzero;fill:rgb(0%,42.745098%,94.117647%);fill-opacity:1;" />
<path d="M 24 208 L 40 208 L 40 224 L 24 224 Z M 24 208 " style=" stroke:none;fill-rule:nonzero;fill:rgb(0%,42.745098%,94.117647%);fill-opacity:1;" />
<path d="M 24 240 L 40 240 L 40 256 L 24 256 Z M 24 240 " style=" stroke:none;fill-rule:nonzero;fill:rgb(0%,42.745098%,94.117647%);fill-opacity:1;" />
<path d="M 24 272 L 40 272 L 40 288 L 24 288 Z M 24 272 " style=" stroke:none;fill-rule:nonzero;fill:rgb(0%,42.745098%,94.117647%);fill-opacity:1;" />
<path d="M 24 304 L 40 304 L 40 320 L 24 320 Z M 24 304 " style=" stroke:none;fill-rule:nonzero;fill:rgb(0%,42.745098%,94.117647%);fill-opacity:1;" />
<path d="M 24 336 L 40 336 L 40 352 L 24 352 Z M 24 336 " style=" stroke:none;fill-rule:nonzero;fill:rgb(0%,42.745098%,94.117647%);fill-opacity:1;" />
<path d="M 24 368 L 40 368 L 40 384 L 24 384 Z M 24 368 " style=" stroke:none;fill-rule:nonzero;fill:rgb(0%,42.745098%,94.117647%);fill-opacity:1;" />
<path d="M 424 144 L 440 144 L 440 160 L 424 160 Z M 424 144 " style=" stroke:none;fill-rule:nonzero;fill:rgb(0%,42.745098%,94.117647%);fill-opacity:1;" />
<path d="M 424 176 L 440 176 L 440 192 L 424 192 Z M 424 176 " style=" stroke:none;fill-rule:nonzero;fill:rgb(0%,42.745098%,94.117647%);fill-opacity:1;" />
<path d="M 424 208 L 440 208 L 440 224 L 424 224 Z M 424 208 " style=" stroke:none;fill-rule:nonzero;fill:rgb(0%,42.745098%,94.117647%);fill-opacity:1;" />
<path d="M 424 240 L 440 240 L 440 256 L 424 256 Z M 424 240 " style=" stroke:none;fill-rule:nonzero;fill:rgb(0%,42.745098%,94.117647%);fill-opacity:1;" />
<path d="M 424 272 L 440 272 L 440 288 L 424 288 Z M 424 272 " style=" stroke:none;fill-rule:nonzero;fill:rgb(0%,42.745098%,94.117647%);fill-opacity:1;" />
<path d="M 424 304 L 440 304 L 440 320 L 424 320 Z M 424 304 " style=" stroke:none;fill-rule:nonzero;fill:rgb(0%,42.745098%,94.117647%);fill-opacity:1;" />
<path d="M 424 336 L 440 336 L 440 352 L 424 352 Z M 424 336 " style=" stroke:none;fill-rule:nonzero;fill:rgb(0%,42.745098%,94.117647%);fill-opacity:1;" />
<path d="M 424 368 L 440 368 L 440 384 L 424 384 Z M 424 368 " style=" stroke:none;fill-rule:nonzero;fill:rgb(0%,42.745098%,94.117647%);fill-opacity:1;" />
<path d="M 112 24 L 440 24 L 440 40 L 112 40 Z M 112 24 " style=" stroke:none;fill-rule:nonzero;fill:rgb(0%,42.745098%,94.117647%);fill-opacity:1;" />
</g>
</svg>