<svg xmlns="http://www.w3.org/2000/svg" height="744pt" version="1.1" viewBox="0 0 744.31121 744" width="744pt">
<g id="surface1">
<path d="M 205.511719 667.175781 L 0.210938 667.175781 L 0.210938 744.175781 L 205.511719 744.175781 Z M 25.910156 705.675781 Z M 25.910156 705.675781 " style=" stroke:none;fill-rule:nonzero;fill:rgb(100%,83.137255%,13.333333%);fill-opacity:1;" />
<path d="M 474.910156 667.175781 L 269.609375 667.175781 L 269.609375 744.175781 L 474.8125 744.175781 L 474.8125 667.175781 Z M 295.3125 705.675781 Z M 295.3125 705.675781 " style=" stroke:none;fill-rule:nonzero;fill:rgb(100%,83.137255%,13.333333%);fill-opacity:1;" />
<path d="M 539.011719 744.175781 L 744.210938 744.175781 L 744.210938 667.175781 L 539.011719 667.175781 Z M 590.3125 705.675781 Z M 590.3125 705.675781 " style=" stroke:none;fill-rule:nonzero;fill:rgb(100%,83.137255%,13.333333%);fill-opacity:1;" />
<path d="M 205.511719 551.777344 L 0.210938 551.777344 L 0.210938 628.777344 L 205.511719 628.777344 Z M 25.910156 590.277344 Z M 25.910156 590.277344 " style=" stroke:none;fill-rule:nonzero;fill:rgb(100%,85.490196%,26.666667%);fill-opacity:1;" />
<path d="M 269.609375 628.777344 L 474.8125 628.777344 L 474.8125 551.777344 L 269.609375 551.777344 Z M 320.910156 590.277344 Z M 320.910156 590.277344 " style=" stroke:none;fill-rule:nonzero;fill:rgb(100%,85.490196%,26.666667%);fill-opacity:1;" />
<path d="M 539.011719 628.777344 L 744.210938 628.777344 L 744.210938 551.777344 L 539.011719 551.777344 Z M 590.3125 590.277344 Z M 590.3125 590.277344 " style=" stroke:none;fill-rule:nonzero;fill:rgb(100%,85.490196%,26.666667%);fill-opacity:1;" />
<path d="M 744.3125 282.375 C 744.3125 235.375 712.410156 194.375 666.8125 182.875 C 661.8125 130.277344 617.609375 90.078125 564.710938 89.976562 C 544.910156 89.976562 525.609375 95.675781 509.011719 106.476562 C 489.8125 30.976562 413.011719 -14.722656 337.410156 4.578125 C 287.3125 17.277344 248.210938 56.375 235.511719 106.476562 C 219.011719 95.675781 199.609375 89.875 179.8125 89.976562 C 126.910156 89.976562 82.710938 130.175781 77.710938 182.875 C 22.710938 196.675781 -10.6875 252.375 3.109375 307.375 C 14.609375 353.078125 55.710938 385.175781 102.8125 385.078125 L 641.609375 385.078125 C 698.3125 384.976562 744.3125 339.078125 744.3125 282.375 Z M 102.910156 346.476562 Z M 154.210938 346.476562 Z M 205.511719 346.476562 Z M 256.8125 346.476562 Z M 308.109375 346.476562 Z M 359.410156 346.476562 Z M 410.710938 346.476562 Z M 462.011719 346.476562 Z M 513.3125 346.476562 Z M 564.710938 346.476562 Z M 641.609375 346.476562 Z M 641.609375 346.476562 " style=" stroke:none;fill-rule:nonzero;fill:rgb(34.117647%,64.313725%,100%);fill-opacity:1;" />
<path d="M 744.3125 282.375 C 744.3125 235.375 712.410156 194.375 666.8125 182.875 C 661.8125 130.277344 617.609375 90.078125 564.710938 89.976562 C 544.910156 89.976562 525.609375 95.675781 509.011719 106.476562 C 489.8125 30.976562 413.011719 -14.722656 337.410156 4.578125 C 287.3125 17.277344 248.210938 56.375 235.511719 106.476562 C 219.011719 95.675781 199.609375 89.875 179.8125 89.976562 C 126.910156 89.976562 82.710938 130.175781 77.710938 182.875 C 22.710938 196.675781 -10.6875 252.375 3.109375 307.375 C 14.609375 353.078125 55.710938 385.175781 102.8125 385.078125 L 641.609375 385.078125 C 698.3125 384.976562 744.3125 339.078125 744.3125 282.375 Z M 102.910156 346.476562 Z M 154.210938 346.476562 Z M 205.511719 346.476562 Z M 256.8125 346.476562 Z M 308.109375 346.476562 Z M 359.410156 346.476562 Z M 410.710938 346.476562 Z M 462.011719 346.476562 Z M 513.3125 346.476562 Z M 564.710938 346.476562 Z M 641.609375 346.476562 Z M 641.609375 346.476562 " style=" stroke:none;fill-rule:nonzero;fill:rgb(34.117647%,64.313725%,100%);fill-opacity:1;" />
<path d="M 359.410156 384.976562 L 385.109375 384.976562 L 385.109375 551.777344 L 359.410156 551.777344 Z M 359.410156 384.976562 " style=" stroke:none;fill-rule:nonzero;fill:rgb(0%,42.745098%,94.117647%);fill-opacity:1;" />
<path d="M 654.511719 551.777344 L 628.8125 551.777344 L 628.8125 487.578125 L 102.910156 487.578125 L 102.910156 551.777344 L 77.210938 551.777344 L 77.210938 461.976562 L 654.511719 461.976562 Z M 654.511719 551.777344 " style=" stroke:none;fill-rule:nonzero;fill:rgb(0%,42.745098%,94.117647%);fill-opacity:1;" />
<path d="M 25.910156 577.375 L 51.609375 577.375 L 51.609375 603.078125 L 25.910156 603.078125 Z M 25.910156 577.375 " style=" stroke:none;fill-rule:nonzero;fill:rgb(0%,42.745098%,94.117647%);fill-opacity:1;" />
<path d="M 25.910156 692.875 L 51.609375 692.875 L 51.609375 718.578125 L 25.910156 718.578125 Z M 25.910156 692.875 " style=" stroke:none;fill-rule:nonzero;fill:rgb(0%,42.745098%,94.117647%);fill-opacity:1;" />
<path d="M 295.3125 577.375 L 321.011719 577.375 L 321.011719 603.078125 L 295.3125 603.078125 Z M 295.3125 577.375 " style=" stroke:none;fill-rule:nonzero;fill:rgb(0%,42.745098%,94.117647%);fill-opacity:1;" />
<path d="M 564.710938 577.375 L 590.410156 577.375 L 590.410156 603.078125 L 564.710938 603.078125 Z M 564.710938 577.375 " style=" stroke:none;fill-rule:nonzero;fill:rgb(0%,42.745098%,94.117647%);fill-opacity:1;" />
<path d="M 564.710938 692.875 L 590.410156 692.875 L 590.410156 718.578125 L 564.710938 718.578125 Z M 564.710938 692.875 " style=" stroke:none;fill-rule:nonzero;fill:rgb(0%,42.745098%,94.117647%);fill-opacity:1;" />
<path d="M 295.3125 692.875 L 321.011719 692.875 L 321.011719 718.578125 L 295.3125 718.578125 Z M 295.3125 692.875 " style=" stroke:none;fill-rule:nonzero;fill:rgb(0%,42.745098%,94.117647%);fill-opacity:1;" />
<path d="M 359.410156 333.675781 L 385.109375 333.675781 L 385.109375 359.375 L 359.410156 359.375 Z M 359.410156 333.675781 " style=" stroke:none;fill-rule:nonzero;fill:rgb(0%,42.745098%,94.117647%);fill-opacity:1;" />
<path d="M 410.710938 333.675781 L 436.410156 333.675781 L 436.410156 359.375 L 410.710938 359.375 Z M 410.710938 333.675781 " style=" stroke:none;fill-rule:nonzero;fill:rgb(0%,42.745098%,94.117647%);fill-opacity:1;" />
<path d="M 462.011719 333.675781 L 487.710938 333.675781 L 487.710938 359.375 L 462.011719 359.375 Z M 462.011719 333.675781 " style=" stroke:none;fill-rule:nonzero;fill:rgb(0%,42.745098%,94.117647%);fill-opacity:1;" />
<path d="M 513.3125 333.675781 L 539.011719 333.675781 L 539.011719 359.375 L 513.3125 359.375 Z M 513.3125 333.675781 " style=" stroke:none;fill-rule:nonzero;fill:rgb(0%,42.745098%,94.117647%);fill-opacity:1;" />
<path d="M 564.710938 333.675781 L 590.410156 333.675781 L 590.410156 359.375 L 564.710938 359.375 Z M 564.710938 333.675781 " style=" stroke:none;fill-rule:nonzero;fill:rgb(0%,42.745098%,94.117647%);fill-opacity:1;" />
<path d="M 616.011719 333.675781 L 641.710938 333.675781 L 641.710938 359.375 L 616.011719 359.375 Z M 616.011719 333.675781 " style=" stroke:none;fill-rule:nonzero;fill:rgb(0%,42.745098%,94.117647%);fill-opacity:1;" />
<path d="M 308.109375 333.675781 L 333.8125 333.675781 L 333.8125 359.375 L 308.109375 359.375 Z M 308.109375 333.675781 " style=" stroke:none;fill-rule:nonzero;fill:rgb(0%,42.745098%,94.117647%);fill-opacity:1;" />
<path d="M 256.8125 333.675781 L 282.511719 333.675781 L 282.511719 359.375 L 256.8125 359.375 Z M 256.8125 333.675781 " style=" stroke:none;fill-rule:nonzero;fill:rgb(0%,42.745098%,94.117647%);fill-opacity:1;" />
<path d="M 205.511719 333.675781 L 231.210938 333.675781 L 231.210938 359.375 L 205.511719 359.375 Z M 205.511719 333.675781 " style=" stroke:none;fill-rule:nonzero;fill:rgb(0%,42.745098%,94.117647%);fill-opacity:1;" />
<path d="M 154.210938 333.675781 L 179.910156 333.675781 L 179.910156 359.375 L 154.210938 359.375 Z M 154.210938 333.675781 " style=" stroke:none;fill-rule:nonzero;fill:rgb(0%,42.745098%,94.117647%);fill-opacity:1;" />
<path d="M 102.910156 333.675781 L 128.609375 333.675781 L 128.609375 359.375 L 102.910156 359.375 Z M 102.910156 333.675781 " style=" stroke:none;fill-rule:nonzero;fill:rgb(0%,42.745098%,94.117647%);fill-opacity:1;" />
</g>
</svg>